<?xml version="1.0" encoding="UTF-8" standalone="no"?>
<!DOCTYPE svg PUBLIC "-//W3C//DTD SVG 1.1//EN" "http://www.w3.org/Graphics/SVG/1.1/DTD/svg11.dtd">
<svg xmlns="http://www.w3.org/2000/svg" version="1.1" viewBox="0.00 0.00 500.00 500.00">
<g stroke-width="2.00" fill="none" stroke-linecap="butt">
<path stroke="#898167" vector-effect="non-scaling-stroke" d="
  M 249.05 51.49
  L 248.88 49.41
  Q 248.83 48.75 248.17 48.75
  L 243.83 48.75
  Q 243.34 48.75 243.33 49.24
  L 242.78 78.31
  Q 242.77 78.85 243.31 78.84
  L 248.42 78.74
  Q 249.03 78.73 249.04 78.11
  Q 249.16 69.69 249.58 61.31
  C 250.04 51.92 262.28 51.09 262.47 60.07
  Q 262.56 64.25 262.17 78.67
  Q 262.16 79.25 262.74 79.25
  L 268.02 79.25
  A 0.79 0.79 0.0 0 0 268.80 78.36
  C 267.84 71.00 269.74 63.87 268.69 57.57
  C 267.13 48.24 256.82 45.49 249.71 51.76
  Q 249.12 52.29 249.05 51.49"
/>
<path stroke="#898167" vector-effect="non-scaling-stroke" d="
  M 224.7025 81.7553
  A 15.81 14.86 86.8 0 0 238.6568 65.1405
  A 15.81 14.86 86.8 0 0 222.9375 50.1847
  A 15.81 14.86 86.8 0 0 208.9832 66.7995
  A 15.81 14.86 86.8 0 0 224.7025 81.7553"
/>
<path stroke="#898167" vector-effect="non-scaling-stroke" d="
  M 283.27 54.23
  L 283.69 51.97
  Q 283.80 51.40 283.23 51.29
  L 278.86 50.37
  Q 278.27 50.25 278.15 50.84
  L 272.62 79.16
  Q 272.50 79.77 273.11 79.89
  L 278.14 80.84
  Q 278.71 80.95 278.81 80.38
  Q 280.23 72.53 281.92 64.77
  C 284.19 54.34 296.85 55.38 295.00 65.77
  Q 293.44 74.46 291.66 83.15
  Q 291.55 83.66 292.07 83.74
  L 297.11 84.60
  Q 297.67 84.70 297.79 84.14
  Q 300.68 70.29 301.42 65.93
  C 303.30 54.86 292.97 48.92 283.70 54.53
  Q 283.15 54.86 283.27 54.23"
/>
<path stroke="#898167" vector-effect="non-scaling-stroke" d="
  M 205.36 87.68
  A 0.77 0.77 0.0 0 1 205.12 86.27
  L 211.24 82.65
  Q 211.93 82.25 211.54 81.55
  L 209.48 77.81
  Q 209.14 77.21 208.65 77.68
  C 191.86 93.66 180.57 57.79 203.16 60.81
  Q 203.89 60.90 203.82 60.17
  L 203.43 55.78
  Q 203.39 55.28 202.88 55.26
  C 178.79 54.31 177.76 86.13 200.13 87.50
  Q 200.62 87.53 200.50 88.01
  L 199.83 90.84
  A 1.03 1.03 0.0 0 0 201.19 92.04
  Q 202.86 91.41 204.44 92.22
  Q 205.07 92.54 204.75 93.17
  C 203.86 94.96 201.86 94.56 200.24 94.56
  Q 199.75 94.56 199.75 95.05
  L 199.75 97.75
  Q 199.75 98.29 200.29 98.37
  C 208.33 99.55 214.68 89.51 205.36 87.68"
/>
<path stroke="#898167" vector-effect="non-scaling-stroke" d="
  M 310.76 75.04
  L 328.01 81.69
  A 1.50 1.50 0.0 0 0 329.93 80.88
  C 333.06 73.60 332.47 65.24 324.15 61.97
  C 303.13 53.71 292.07 94.10 323.09 92.91
  Q 323.60 92.89 323.67 92.38
  L 324.15 88.75
  Q 324.23 88.14 323.62 88.13
  C 316.14 88.09 307.37 84.32 310.06 75.38
  Q 310.22 74.83 310.76 75.04"
/>
<path stroke="#898167" vector-effect="non-scaling-stroke" d="
  M 180.99 91.81
  Q 181.73 92.29 182.01 93.19
  Q 182.19 93.78 182.75 93.50
  L 187.05 91.35
  Q 187.55 91.10 187.28 90.61
  Q 182.68 82.25 178.55 73.72
  C 173.26 62.81 161.01 67.28 155.72 75.34
  Q 155.46 75.74 155.78 76.09
  L 158.14 78.66
  A 0.63 0.63 0.0 0 0 159.13 78.59
  C 161.70 74.83 169.70 68.79 172.56 76.10
  Q 172.79 76.67 172.22 76.91
  C 165.27 79.83 156.64 88.74 163.68 96.39
  C 169.02 102.20 177.38 98.49 180.27 92.03
  Q 180.51 91.49 180.99 91.81"
/>
<path stroke="#898167" vector-effect="non-scaling-stroke" d="
  M 119.29 98.25
  L 145.03 115.48
  Q 145.52 115.81 145.99 115.46
  L 148.95 113.32
  A 0.79 0.79 0.0 0 0 149.24 112.43
  L 139.26 81.72
  A 0.18 0.18 0.0 0 1 139.57 81.55
  L 159.45 104.58
  Q 159.91 105.12 160.47 104.69
  L 164.52 101.56
  A 0.41 0.40 50.6 0 0 164.57 100.97
  L 137.79 70.53
  Q 137.32 70.00 136.75 70.44
  L 131.75 74.34
  Q 131.25 74.73 131.45 75.34
  L 141.46 105.78
  A 0.07 0.07 0.0 0 1 141.36 105.86
  L 114.75 88.39
  Q 114.16 88.00 113.60 88.43
  L 108.68 92.21
  Q 108.10 92.65 108.51 93.26
  L 130.93 126.84
  Q 131.26 127.33 131.74 126.98
  L 135.31 124.31
  A 1.18 1.18 0.0 0 0 135.57 122.70
  L 118.98 98.55
  Q 118.33 97.61 119.29 98.25"
/>
<path stroke="#898167" vector-effect="non-scaling-stroke" d="
  M 344.73 75.23
  L 345.93 73.04
  Q 346.17 72.59 345.71 72.36
  L 341.65 70.32
  Q 341.12 70.06 340.84 70.58
  L 327.18 95.98
  Q 326.87 96.56 327.45 96.87
  L 331.93 99.26
  Q 332.53 99.57 332.83 98.97
  C 336.63 91.37 342.58 75.35 351.53 82.05
  Q 352.06 82.45 352.37 81.87
  L 354.64 77.66
  A 0.99 0.99 0.0 0 0 354.26 76.33
  Q 349.95 73.84 345.31 75.86
  Q 344.10 76.39 344.73 75.23"
/>
<path stroke="#898167" vector-effect="non-scaling-stroke" d="
  M 369.84 75.75
  A 3.82 3.82 0.0 0 0 366.02 71.93
  A 3.82 3.82 0.0 0 0 362.20 75.75
  A 3.82 3.82 0.0 0 0 366.02 79.57
  A 3.82 3.82 0.0 0 0 369.84 75.75"
/>
<path stroke="#898167" vector-effect="non-scaling-stroke" d="
  M 364.1901 84.4125
  A 0.75 0.75 0.0 0 0 363.9786 83.3731
  L 359.8092 80.6134
  A 0.75 0.75 0.0 0 0 358.7698 80.8249
  L 342.8299 104.9075
  A 0.75 0.75 0.0 0 0 343.0414 105.9469
  L 347.2108 108.7066
  A 0.75 0.75 0.0 0 0 348.2502 108.4951
  L 364.1901 84.4125"
/>
<path stroke="#898167" vector-effect="non-scaling-stroke" d="
  M 372.28 120.96
  C 365.70 118.01 358.43 112.61 363.79 104.59
  Q 364.11 104.10 364.56 104.48
  L 379.17 116.83
  Q 379.60 117.19 380.02 116.82
  C 387.52 110.26 388.08 99.46 378.62 94.34
  C 367.88 88.52 353.29 101.12 356.44 112.80
  C 358.07 118.82 364.26 123.39 370.05 125.39
  Q 370.65 125.60 370.94 125.04
  L 372.59 121.85
  Q 372.90 121.24 372.28 120.96"
/>
<path stroke="#898167" vector-effect="non-scaling-stroke" d="
  M 349.67 414.86
  L 350.86 416.94
  Q 351.17 417.47 351.70 417.16
  L 355.66 414.83
  Q 356.14 414.55 355.85 414.08
  L 333.25 377.75
  A 0.43 0.43 0.0 0 0 332.65 377.61
  L 328.23 380.39
  A 0.75 0.75 0.0 0 0 327.99 381.42
  L 335.44 393.56
  Q 335.84 394.19 335.09 394.18
  C 328.35 394.09 322.90 398.00 321.54 404.61
  C 318.30 420.26 341.80 435.73 349.35 414.89
  A 0.18 0.18 0.0 0 1 349.67 414.86"
/>
<path stroke="#898167" vector-effect="non-scaling-stroke" d="
  M 146.63 417.53
  L 150.94 420.31
  Q 151.49 420.67 151.84 420.10
  L 159.48 407.67
  A 0.84 0.83 34.8 0 1 160.72 407.45
  C 169.21 414.21 181.53 414.34 185.28 402.26
  C 188.44 392.08 174.76 385.43 168.24 382.50
  Q 167.75 382.27 167.46 382.73
  L 146.41 416.54
  A 0.72 0.72 0.0 0 0 146.63 417.53"
/>
<path stroke="#898167" vector-effect="non-scaling-stroke" d="
  M 306.1495 393.9064
  A 0.59 0.59 0.0 0 0 305.3620 393.6306
  L 300.6584 395.8943
  A 0.59 0.59 0.0 0 0 300.3826 396.6818
  L 318.8305 435.0136
  A 0.59 0.59 0.0 0 0 319.6180 435.2894
  L 324.3216 433.0257
  A 0.59 0.59 0.0 0 0 324.5974 432.2382
  L 306.1495 393.9064"
/>
<path stroke="#898167" vector-effect="non-scaling-stroke" d="
  M 297.58 405.25
  A 3.79 3.79 0.0 0 0 293.79 401.46
  A 3.79 3.79 0.0 0 0 290.00 405.25
  A 3.79 3.79 0.0 0 0 293.79 409.04
  A 3.79 3.79 0.0 0 0 297.58 405.25"
/>
<path stroke="#898167" vector-effect="non-scaling-stroke" d="
  M 191.23 411.96
  L 192.16 409.45
  Q 192.36 408.91 191.84 408.68
  L 187.94 406.92
  Q 187.41 406.68 187.16 407.21
  L 175.06 433.52
  Q 174.85 433.98 175.30 434.20
  L 179.99 436.48
  Q 180.53 436.74 180.79 436.19
  Q 183.68 430.03 186.61 423.92
  C 189.26 418.41 192.23 414.20 198.67 417.93
  Q 199.20 418.23 199.45 417.68
  L 201.26 413.70
  A 1.28 1.27 24.9 0 0 200.64 412.02
  Q 196.06 409.85 191.69 412.35
  Q 190.93 412.79 191.23 411.96"
/>
<path stroke="#898167" vector-effect="non-scaling-stroke" d="
  M 252.93 430.16
  C 257.95 427.37 259.93 421.44 256.73 416.52
  C 252.39 409.84 240.47 410.66 234.14 411.40
  Q 233.56 411.47 233.54 412.06
  L 232.42 451.51
  A 0.79 0.78 4.9 0 0 233.10 452.31
  C 242.10 453.71 257.23 454.46 259.11 442.48
  C 259.93 437.26 257.38 433.30 252.93 430.85
  Q 252.30 430.51 252.93 430.16"
/>
<path stroke="#898167" vector-effect="non-scaling-stroke" d="
  M 299.8273 411.6722
  A 0.50 0.50 0.0 0 0 299.1784 411.3914
  L 294.1390 413.3866
  A 0.50 0.50 0.0 0 0 293.8582 414.0355
  L 304.5927 441.1478
  A 0.50 0.50 0.0 0 0 305.2416 441.4286
  L 310.2810 439.4334
  A 0.50 0.50 0.0 0 0 310.5618 438.7845
  L 299.8273 411.6722"
/>
<path stroke="#898167" vector-effect="non-scaling-stroke" d="
  M 288.68 443.80
  L 289.30 446.13
  Q 289.47 446.77 290.12 446.63
  L 294.35 445.68
  Q 295.01 445.53 294.85 444.87
  L 288.07 417.16
  Q 287.81 416.09 286.75 416.35
  L 282.38 417.41
  A 0.83 0.83 0.0 0 0 281.78 418.41
  C 282.87 422.85 287.24 436.02 285.56 439.86
  C 283.95 443.53 278.22 446.18 275.37 441.89
  C 272.07 436.94 270.75 427.21 269.25 421.29
  Q 269.12 420.80 268.63 420.90
  L 263.61 421.98
  Q 262.96 422.12 263.11 422.77
  Q 266.05 435.31 267.82 441.66
  C 270.76 452.27 282.93 452.17 288.28 443.74
  A 0.22 0.22 0.0 0 1 288.68 443.80"
/>
<path stroke="#898167" vector-effect="non-scaling-stroke" d="
  M 205.6525 446.9773
  A 15.85 14.86 111.3 0 0 225.2549 437.6079
  A 15.85 14.86 111.3 0 0 217.1675 417.4427
  A 15.85 14.86 111.3 0 0 197.5651 426.8121
  A 15.85 14.86 111.3 0 0 205.6525 446.9773"
/>
<path stroke="#a89972" vector-effect="non-scaling-stroke" d="
  M 248.09 54.21
  L 247.95 50.34
  Q 247.93 49.75 247.34 49.75
  L 244.94 49.75
  Q 244.38 49.75 244.37 50.31
  L 243.79 77.01
  A 0.72 0.72 0.0 0 0 244.51 77.75
  L 247.45 77.75
  Q 247.98 77.75 248.00 77.22
  C 248.18 72.09 247.24 60.52 249.78 56.36
  C 253.53 50.20 263.38 52.00 263.50 60.01
  Q 263.59 66.48 263.16 77.62
  Q 263.14 78.25 263.77 78.25
  L 266.72 78.25
  Q 267.35 78.25 267.38 77.62
  Q 268.02 64.48 267.73 58.99
  C 267.18 48.27 254.90 46.50 248.90 54.46
  Q 248.14 55.48 248.09 54.21"
/>
<path stroke="#a89972" vector-effect="non-scaling-stroke" d="
  M 224.5525 80.7823
  A 14.79 13.76 87.2 0 0 237.5736 65.3378
  A 14.79 13.76 87.2 0 0 223.1075 51.2377
  A 14.79 13.76 87.2 0 0 210.0864 66.6822
  A 14.79 13.76 87.2 0 0 224.5525 80.7823"
/>
<path stroke="#a89972" vector-effect="non-scaling-stroke" d="
  M 281.95 56.48
  L 282.47 52.64
  Q 282.53 52.18 282.08 52.08
  L 279.75 51.58
  Q 279.11 51.44 278.98 52.08
  L 273.81 78.32
  Q 273.67 79.02 274.38 79.14
  L 277.35 79.66
  Q 277.86 79.74 277.95 79.23
  Q 279.39 71.35 281.17 63.55
  C 283.63 52.72 298.33 55.03 296.12 65.60
  Q 294.38 73.88 292.79 82.25
  Q 292.69 82.81 293.25 82.91
  L 296.32 83.48
  Q 296.88 83.59 297.00 83.03
  Q 298.79 74.14 300.47 65.26
  C 302.45 54.74 290.09 49.61 282.82 56.91
  Q 281.75 57.97 281.95 56.48"
/>
<path stroke="#a89972" vector-effect="non-scaling-stroke" d="
  M 225.6071 77.5978
  A 11.81 9.36 81.1 0 0 233.0273 64.4819
  A 11.81 9.36 81.1 0 0 221.9529 54.2622
  A 11.81 9.36 81.1 0 0 214.5327 67.3781
  A 11.81 9.36 81.1 0 0 225.6071 77.5978"
/>
<path stroke="#898167" vector-effect="non-scaling-stroke" d="
  M 225.2291 76.6657
  A 10.73 8.33 82.4 0 0 232.0668 64.9283
  A 10.73 8.33 82.4 0 0 222.3909 55.3943
  A 10.73 8.33 82.4 0 0 215.5532 67.1317
  A 10.73 8.33 82.4 0 0 225.2291 76.6657"
/>
<path stroke="#a89972" vector-effect="non-scaling-stroke" d="
  M 202.04 86.51
  L 201.14 90.17
  Q 200.99 90.79 201.60 90.63
  C 207.27 89.15 208.05 96.33 201.60 95.77
  Q 201.00 95.72 201.00 96.32
  L 201.00 96.94
  Q 201.00 97.49 201.56 97.49
  C 209.13 97.49 211.29 87.86 203.50 89.05
  Q 202.80 89.16 202.99 88.48
  L 203.75 85.88
  Q 203.90 85.35 204.40 85.09
  L 209.93 82.20
  Q 210.51 81.90 210.18 81.33
  L 209.12 79.55
  Q 208.81 79.02 208.34 79.41
  C 191.08 93.59 178.96 58.99 201.90 59.53
  Q 202.50 59.55 202.50 58.95
  L 202.50 56.96
  Q 202.50 56.32 201.86 56.32
  C 178.06 56.39 181.41 89.02 201.49 85.91
  Q 202.22 85.79 202.04 86.51"
/>
<path stroke="#a89972" vector-effect="non-scaling-stroke" d="
  M 317.76 61.90
  C 308.40 62.71 302.08 75.15 305.80 83.41
  C 308.37 89.13 315.97 91.77 322.11 91.92
  Q 322.75 91.93 322.75 91.29
  L 322.75 89.77
  Q 322.75 89.28 322.27 89.23
  C 313.53 88.24 306.22 84.38 309.32 74.09
  A 0.54 0.54 0.0 0 1 310.03 73.74
  L 328.27 80.66
  Q 328.67 80.81 328.85 80.43
  C 333.13 71.39 328.81 60.94 317.76 61.90"
/>
<path stroke="#a89972" vector-effect="non-scaling-stroke" d="
  M 311.41 71.36
  L 325.54 76.64
  A 0.59 0.59 0.0 0 0 326.29 76.29
  L 326.47 75.81
  A 8.48 8.13 -69.5 0 0 321.83 65.02
  L 321.83 65.02
  A 8.48 8.13 -69.5 0 0 311.24 70.12
  L 311.06 70.60
  A 0.59 0.59 0.0 0 0 311.41 71.36"
/>
<path stroke="#898167" vector-effect="non-scaling-stroke" d="
  M 312.80 70.87
  L 324.94 75.27
  A 0.47 0.47 0.0 0 0 325.55 74.98
  L 325.61 74.81
  A 6.88 6.81 19.9 0 0 321.46 66.07
  L 321.36 66.04
  A 6.88 6.81 19.9 0 0 312.58 70.10
  L 312.51 70.27
  A 0.47 0.47 0.0 0 0 312.80 70.87"
/>
<path stroke="#a89972" vector-effect="non-scaling-stroke" d="
  M 181.03 89.55
  L 182.52 91.70
  Q 182.87 92.20 183.41 91.92
  L 185.33 90.95
  Q 185.86 90.69 185.59 90.16
  C 182.73 84.63 178.61 73.72 174.56 70.26
  C 168.99 65.51 161.08 70.02 157.07 75.13
  Q 156.70 75.61 157.14 76.03
  L 158.15 76.99
  Q 158.60 77.41 158.97 76.92
  C 162.96 71.74 171.13 68.25 174.07 76.58
  Q 174.24 77.06 173.78 77.29
  C 167.98 80.20 157.70 87.43 163.96 95.03
  C 167.65 99.51 174.55 98.75 177.80 94.22
  Q 178.49 93.26 180.18 89.62
  Q 180.54 88.85 181.03 89.55"
/>
<path stroke="#a89972" vector-effect="non-scaling-stroke" d="
  M 166.10 88.02
  C 164.44 99.19 185.87 95.14 175.71 79.77
  Q 175.47 79.40 175.06 79.56
  C 171.41 80.93 166.69 83.98 166.10 88.02"
/>
<path stroke="#a89972" vector-effect="non-scaling-stroke" d="
  M 136.66 77.49
  A 0.39 0.38 15.6 0 1 137.32 77.12
  L 159.46 103.03
  Q 160.00 103.67 160.65 103.13
  L 162.66 101.47
  Q 163.15 101.06 162.73 100.58
  L 137.60 72.03
  Q 137.24 71.63 136.81 71.95
  L 133.00 74.80
  Q 132.51 75.17 132.70 75.75
  L 143.46 108.15
  A 0.26 0.26 0.0 0 1 143.07 108.45
  L 114.86 89.68
  Q 114.31 89.32 113.79 89.71
  L 110.37 92.28
  Q 109.56 92.89 110.12 93.74
  L 131.24 125.20
  Q 131.56 125.68 132.00 125.32
  L 133.98 123.69
  Q 134.57 123.22 134.14 122.60
  L 114.87 94.67
  A 0.37 0.37 0.0 0 1 115.39 94.15
  L 144.84 114.14
  Q 145.35 114.49 145.87 114.15
  L 147.63 113.02
  Q 148.25 112.62 148.02 111.91
  L 136.66 77.49"
/>
<path stroke="#a89972" vector-effect="non-scaling-stroke" d="
  M 342.17 77.89
  L 344.38 73.51
  Q 344.59 73.11 344.19 72.90
  L 342.04 71.77
  Q 341.60 71.53 341.36 71.98
  L 328.63 95.59
  Q 328.36 96.09 328.87 96.37
  L 331.45 97.75
  Q 332.04 98.07 332.35 97.47
  C 336.68 89.09 340.93 75.88 351.30 80.32
  Q 351.83 80.54 352.10 80.03
  L 353.37 77.62
  Q 353.63 77.12 353.12 76.89
  Q 347.48 74.38 343.16 78.62
  A 0.62 0.62 0.0 0 1 342.17 77.89"
/>
<path stroke="#a89972" vector-effect="non-scaling-stroke" d="
  M 368.70 75.71
  A 2.72 2.72 0.0 0 0 365.98 72.99
  A 2.72 2.72 0.0 0 0 363.26 75.71
  A 2.72 2.72 0.0 0 0 365.98 78.43
  A 2.72 2.72 0.0 0 0 368.70 75.71"
/>
<path stroke="#898167" vector-effect="non-scaling-stroke" d="
  M 169.53 92.68
  Q 171.84 94.38 173.65 93.05
  Q 180.49 87.99 175.07 81.41
  Q 174.81 81.10 174.43 81.26
  C 169.77 83.29 163.68 88.35 169.53 92.68"
/>
<path stroke="#a89972" vector-effect="non-scaling-stroke" d="
  M 362.5447 84.6538
  A 0.52 0.52 0.0 0 0 362.3993 83.9329
  L 359.8339 82.2285
  A 0.52 0.52 0.0 0 0 359.1130 82.3739
  L 344.3153 104.6462
  A 0.52 0.52 0.0 0 0 344.4607 105.3671
  L 347.0261 107.0715
  A 0.52 0.52 0.0 0 0 347.7470 106.9261
  L 362.5447 84.6538"
/>
<path stroke="#a89972" vector-effect="non-scaling-stroke" d="
  M 364.41 102.82
  L 379.16 115.38
  A 0.60 0.59 -47.5 0 0 379.97 115.34
  C 391.98 102.76 377.94 87.48 364.56 96.88
  C 351.69 105.93 356.98 119.03 369.64 123.99
  Q 370.26 124.23 370.49 123.61
  L 371.05 122.17
  Q 371.25 121.65 370.73 121.44
  C 362.74 118.24 357.07 110.93 363.61 102.90
  Q 363.97 102.45 364.41 102.82"
/>
<path stroke="#95865c" vector-effect="non-scaling-stroke" d="
  M 239.15 148.33
  Q 238.09 151.78 235.20 153.18
  Q 231.21 155.10 231.86 158.84"
/>
<path stroke="#95865c" vector-effect="non-scaling-stroke" d="
  M 231.04 165.00
  Q 228.62 167.54 228.50 171.21"
/>
<path stroke="#837448" vector-effect="non-scaling-stroke" d="
  M 221.18 181.90
  Q 218.40 176.40 217.78 170.17"
/>
<path stroke="#95865c" vector-effect="non-scaling-stroke" d="
  M 258.80 148.18
  Q 264.00 150.67 267.30 153.69
  C 277.80 163.28 278.41 180.33 267.07 189.80
  Q 264.21 192.19 261.50 194.71"
/>
<path stroke="#8d7e53" vector-effect="non-scaling-stroke" d="
  M 230.25 194.71
  L 226.50 188.29"
/>
<path stroke="#837448" vector-effect="non-scaling-stroke" d="
  M 286.04 171.00
  C 284.93 175.94 284.51 180.73 282.21 185.55
  C 281.12 187.84 280.65 190.89 278.52 193.30
  Q 278.20 193.65 278.42 194.07
  Q 278.59 194.41 278.50 194.71"
/>
<path stroke="#8d7e53" vector-effect="non-scaling-stroke" d="
  M 151.21 189.36
  Q 147.23 188.69 143.29 189.25"
/>
<path stroke="#ac9d77" vector-effect="non-scaling-stroke" d="
  M 151.21 201.25
  Q 147.47 199.00 143.22 200.64"
/>
<path stroke="#ac9d77" vector-effect="non-scaling-stroke" d="
  M 151.21 214.00
  Q 147.41 215.47 143.29 214.75"
/>
<path stroke="#8d7e53" vector-effect="non-scaling-stroke" d="
  M 151.21 223.00
  Q 147.25 224.22 143.29 223.00"
/>
<path stroke="#837448" vector-effect="non-scaling-stroke" d="
  M 360.18 204.39
  C 357.11 204.05 355.10 201.24 351.96 203.00"
/>
<path stroke="#8d7e53" vector-effect="non-scaling-stroke" d="
  M 344.67 203.41
  Q 341.76 202.90 339.67 204.88
  Q 339.31 205.22 338.83 205.37
  L 336.79 206.00"
/>
<path stroke="#95865c" vector-effect="non-scaling-stroke" d="
  M 360.28 210.70
  Q 357.22 206.63 352.01 207.07"
/>
<path stroke="#95865c" vector-effect="non-scaling-stroke" d="
  M 360.21 237.00
  Q 358.71 238.08 356.99 238.62
  C 353.19 239.83 351.10 240.90 346.73 240.24
  Q 340.73 239.32 336.74 236.82"
/>
<path stroke="#837448" vector-effect="non-scaling-stroke" d="
  M 360.21 243.00
  Q 348.49 247.97 336.75 242.82"
/>
<path stroke="#8d7e53" vector-effect="non-scaling-stroke" d="
  M 181.98 208.00
  Q 181.45 207.71 181.36 208.19
  Q 181.28 208.59 180.89 208.45
  Q 177.56 207.27 174.29 208.25"
/>
<path stroke="#ac9d77" vector-effect="non-scaling-stroke" d="
  M 181.96 227.50
  L 174.29 226.75"
/>
<path stroke="#ac9d77" vector-effect="non-scaling-stroke" d="
  M 182.00 246.39
  L 174.29 247.00"
/>
<path stroke="#8d7e53" vector-effect="non-scaling-stroke" d="
  M 181.96 258.25
  Q 181.75 258.50 181.73 258.79
  Q 181.70 259.25 181.24 259.23
  L 174.29 259.00"
/>
<path stroke="#8d7e53" vector-effect="non-scaling-stroke" d="
  M 328.96 210.00
  Q 324.96 209.21 321.49 210.90"
/>
<path stroke="#ac9d77" vector-effect="non-scaling-stroke" d="
  M 328.96 229.00
  Q 325.30 227.97 321.54 229.00"
/>
<path stroke="#ac9d77" vector-effect="non-scaling-stroke" d="
  M 328.96 250.25
  Q 328.69 250.45 328.68 250.86
  Q 328.68 250.96 328.61 250.89
  Q 328.50 250.77 328.47 250.63
  Q 328.40 250.37 328.14 250.44
  Q 324.73 251.44 321.54 250.00"
/>
<path stroke="#8d7e53" vector-effect="non-scaling-stroke" d="
  M 328.96 263.25
  Q 328.84 263.43 328.65 263.55
  Q 328.48 263.66 328.49 263.46
  Q 328.50 263.32 328.50 263.18
  Q 328.51 262.88 328.21 262.92
  Q 324.74 263.39 321.49 262.37"
/>
<path stroke="#8d7e53" vector-effect="non-scaling-stroke" d="
  M 224.50 202.79
  L 223.40 210.24"
/>
<path stroke="#ac9d77" vector-effect="non-scaling-stroke" d="
  M 236.50 202.79
  Q 235.05 205.89 235.92 209.21
  Q 236.06 209.76 235.53 209.98
  L 235.00 210.21"
/>
<path stroke="#ac9d77" vector-effect="non-scaling-stroke" d="
  M 262.68 202.76
  L 262.33 209.49
  Q 262.32 209.75 262.06 209.75
  Q 261.90 209.75 261.74 209.74
  Q 261.00 209.71 261.76 209.99
  Q 261.96 210.07 262.00 210.21"
/>
<path stroke="#8d7e53" vector-effect="non-scaling-stroke" d="
  M 277.75 202.79
  L 277.50 210.21"
/>
<path stroke="#837448" vector-effect="non-scaling-stroke" d="
  M 210.04 256.00
  Q 208.65 256.87 209.27 258.52
  Q 211.16 263.59 214.91 272.15"
/>
<path stroke="#95865c" vector-effect="non-scaling-stroke" d="
  M 229.25 264.29
  Q 228.88 266.57 230.44 267.56
  Q 233.55 269.55 234.00 272.21"
/>
<path stroke="#95865c" vector-effect="non-scaling-stroke" d="
  M 278.43 272.18
  L 283.86 264.08
  Q 284.18 263.59 283.94 263.07
  Q 283.47 262.10 282.25 262.46"
/>
<path stroke="#837448" vector-effect="non-scaling-stroke" d="
  M 287.00 272.21
  Q 289.63 266.42 292.50 260.75
  Q 293.23 259.31 293.00 256.46"
/>
<path stroke="#837448" vector-effect="non-scaling-stroke" d="
  M 223.00 218.04
  C 219.37 223.52 218.94 227.54 217.45 233.02
  C 215.68 239.50 219.00 247.57 220.25 253.96"
/>
<path stroke="#95865c" vector-effect="non-scaling-stroke" d="
  M 237.37 217.85
  Q 227.43 225.26 227.02 236.89
  C 226.78 243.82 230.34 250.75 234.00 256.71"
/>
<path stroke="#95865c" vector-effect="non-scaling-stroke" d="
  M 265.83 217.92
  Q 271.92 222.78 273.92 228.81
  Q 278.95 243.97 268.12 256.48"
/>
<path stroke="#837448" vector-effect="non-scaling-stroke" d="
  M 271.45 217.88
  Q 281.64 228.91 279.00 243.26
  Q 278.54 245.77 276.65 249.85
  Q 275.17 253.05 273.96 256.40"
/>
<path stroke="#8d7e53" vector-effect="non-scaling-stroke" d="
  M 211.16 280.00
  Q 210.19 283.79 210.25 287.71"
/>
<path stroke="#ac9d77" vector-effect="non-scaling-stroke" d="
  M 235.50 280.04
  Q 233.98 283.82 235.19 287.74"
/>
<path stroke="#ac9d77" vector-effect="non-scaling-stroke" d="
  M 274.75 280.04
  Q 273.81 283.84 274.50 287.71"
/>
<path stroke="#8d7e53" vector-effect="non-scaling-stroke" d="
  M 283.92 280.00
  L 284.69 287.75"
/>
<path stroke="#837448" vector-effect="non-scaling-stroke" d="
  M 222.00 295.54
  Q 218.80 305.34 221.16 315.47"
/>
<path stroke="#95865c" vector-effect="non-scaling-stroke" d="
  M 228.41 295.57
  C 226.96 300.81 225.27 309.03 228.25 313.96"
/>
<path stroke="#ac9d77" vector-effect="non-scaling-stroke" d="
  M 240.76 295.63
  Q 236.00 303.31 238.04 312.00"
/>
<path stroke="#ac9d77" vector-effect="non-scaling-stroke" d="
  M 265.25 295.54
  L 269.19 305.95"
/>
<path stroke="#8d7e53" vector-effect="non-scaling-stroke" d="
  M 285.25 295.54
  Q 286.57 296.00 286.05 297.25
  Q 285.85 297.74 285.93 298.27
  L 286.50 302.46"
/>
<path stroke="#a89972" vector-effect="non-scaling-stroke" d="
  M 366.51 101.30
  L 377.76 110.60
  A 0.89 0.89 0.0 0 0 379.01 110.49
  L 379.06 110.42
  A 8.69 8.09 -50.4 0 0 378.37 98.57
  L 378.21 98.44
  A 8.69 8.09 -50.4 0 0 366.44 99.98
  L 366.39 100.05
  A 0.89 0.89 0.0 0 0 366.51 101.30"
/>
<path stroke="#898167" vector-effect="non-scaling-stroke" d="
  M 367.97 101.05
  L 377.58 109.17
  A 0.71 0.71 0.0 0 0 378.58 109.09
  L 378.64 109.01
  A 6.84 6.77 40.2 0 0 377.79 99.43
  L 377.54 99.22
  A 6.84 6.77 40.2 0 0 367.95 99.98
  L 367.89 100.05
  A 0.71 0.71 0.0 0 0 367.97 101.05"
/>
<path stroke="#ac9d77" vector-effect="non-scaling-stroke" d="
  M 263.30 167.94
  C 260.19 157.64 245.37 156.26 240.68 166.56
  C 238.16 172.12 240.43 179.11 245.78 182.09
  C 255.55 187.55 266.56 178.73 263.30 167.94"
/>
<path stroke="#a3946c" vector-effect="non-scaling-stroke" d="
  M 193.49 205.26
  C 191.97 204.77 192.46 207.73 192.80 208.14
  Q 193.13 208.53 193.64 208.43
  L 194.81 208.20
  Q 195.28 208.11 195.27 207.63
  L 195.24 205.71
  Q 195.23 205.17 194.70 205.25
  L 194.18 205.32
  Q 193.83 205.37 193.49 205.26"
/>
<path stroke="#ac9d77" vector-effect="non-scaling-stroke" d="
  M 340.94 218.19
  Q 340.34 218.58 340.23 219.47
  C 339.09 228.67 347.21 232.99 354.66 228.55
  Q 355.06 228.31 355.27 227.89
  Q 359.22 219.98 353.11 215.24
  C 349.02 212.06 343.09 213.53 340.94 218.19"
/>
<path stroke="#ac9d77" vector-effect="non-scaling-stroke" d="
  M 255.3385 247.2400
  A 10.18 10.08 69.9 0 0 261.3061 234.2159
  A 10.18 10.08 69.9 0 0 248.3415 228.1200
  A 10.18 10.08 69.9 0 0 242.3739 241.1441
  A 10.18 10.08 69.9 0 0 255.3385 247.2400"
/>
<path stroke="#a3946c" vector-effect="non-scaling-stroke" d="
  M 342.35 268.13
  L 341.22 266.97
  Q 340.79 266.53 340.24 266.80
  Q 338.85 267.50 339.31 268.88
  Q 339.47 269.34 339.96 269.38
  L 341.69 269.53
  A 0.83 0.83 0.0 0 0 342.35 268.13"
/>
<path stroke="#95865c" vector-effect="non-scaling-stroke" d="
  M 194.50 310.99
  C 188.70 298.49 169.87 298.01 163.49 309.70
  Q 160.90 314.44 160.71 319.79
  C 160.62 322.42 163.03 328.34 164.92 330.10
  C 173.58 338.18 185.19 339.45 192.82 329.12
  Q 199.03 320.74 194.50 310.99"
/>
<path stroke="#95865c" vector-effect="non-scaling-stroke" d="
  M 308.76 326.59
  C 316.12 340.88 334.55 341.28 341.91 326.74
  C 344.20 322.21 344.58 317.64 342.70 312.76
  C 340.80 307.83 338.36 304.42 333.66 302.20
  C 327.42 299.25 320.18 300.02 314.73 304.09
  C 308.27 308.92 305.77 316.81 307.51 324.71
  Q 307.66 325.41 308.16 325.84
  Q 308.53 326.15 308.76 326.59"
/>
<path stroke="#a3946c" vector-effect="non-scaling-stroke" d="
  M 179.70 319.85
  L 179.77 317.99
  A 0.69 0.69 0.0 0 0 179.11 317.28
  L 179.01 317.27
  A 2.45 1.37 2.2 0 0 176.51 318.55
  L 176.49 319.05
  A 2.45 1.37 2.2 0 0 178.89 320.51
  L 178.99 320.51
  A 0.69 0.69 0.0 0 0 179.70 319.85"
/>
<path stroke="#a89972" vector-effect="non-scaling-stroke" d="
  M 337.51 396.19
  Q 329.02 393.55 324.19 401.20
  C 319.73 408.25 324.16 417.13 330.18 421.49
  C 337.85 427.03 348.19 422.11 348.01 412.76
  A 0.63 0.63 0.0 0 1 349.16 412.40
  L 351.28 415.60
  Q 351.63 416.13 352.15 415.78
  L 354.12 414.48
  Q 354.54 414.21 354.27 413.78
  L 332.84 379.35
  A 0.46 0.46 0.0 0 0 332.19 379.21
  L 329.68 380.88
  Q 329.19 381.21 329.50 381.72
  L 338.03 395.52
  A 0.45 0.45 0.0 0 1 337.51 396.19"
/>
<path stroke="#a89972" vector-effect="non-scaling-stroke" d="
  M 333.61 398.02
  C 319.69 399.69 328.61 422.30 339.19 419.93
  C 353.26 416.77 343.24 396.86 333.61 398.02"
/>
<path stroke="#a89972" vector-effect="non-scaling-stroke" d="
  M 160.18 405.62
  C 164.35 409.16 170.92 412.43 176.29 410.65
  C 181.20 409.03 184.77 403.84 184.47 398.61
  C 184.07 391.73 174.36 386.10 168.61 384.21
  Q 168.07 384.03 167.77 384.51
  L 148.02 416.17
  Q 147.64 416.79 148.25 417.17
  L 150.55 418.63
  Q 151.05 418.95 151.37 418.44
  L 159.31 405.76
  Q 159.66 405.19 160.18 405.62"
/>
<path stroke="#a89972" vector-effect="non-scaling-stroke" d="
  M 169.31 389.45
  L 162.01 401.21
  A 1.89 1.89 0.0 0 0 162.62 403.81
  L 166.35 406.12
  A 9.44 8.61 31.8 0 0 178.91 403.78
  L 179.13 403.44
  A 9.44 8.61 31.8 0 0 175.64 391.15
  L 171.91 388.84
  A 1.89 1.89 0.0 0 0 169.31 389.45"
/>
<path stroke="#898167" vector-effect="non-scaling-stroke" d="
  M 169.99 390.73
  L 163.41 401.21
  A 1.51 1.51 0.0 0 0 163.89 403.30
  L 166.79 405.11
  A 8.43 7.23 32.1 0 0 177.77 403.47
  L 178.27 402.67
  A 8.43 7.23 32.1 0 0 174.97 392.07
  L 172.07 390.25
  A 1.51 1.51 0.0 0 0 169.99 390.73"
/>
<path stroke="#a89972" vector-effect="non-scaling-stroke" d="
  M 305.7204 395.5752
  A 0.80 0.80 0.0 0 0 304.6526 395.2013
  L 302.3279 396.3201
  A 0.80 0.80 0.0 0 0 301.9539 397.3879
  L 319.2396 433.3048
  A 0.80 0.80 0.0 0 0 320.3074 433.6787
  L 322.6321 432.5599
  A 0.80 0.80 0.0 0 0 323.0061 431.4921
  L 305.7204 395.5752"
/>
<path stroke="#898167" vector-effect="non-scaling-stroke" d="
  M 332.89 417.12
  C 337.72 421.18 344.79 418.24 345.28 412.09
  C 345.75 406.03 336.67 394.21 329.73 401.30
  C 325.24 405.90 328.75 413.63 332.89 417.12"
/>
<path stroke="#a89972" vector-effect="non-scaling-stroke" d="
  M 296.50 405.28
  A 2.72 2.72 0.0 0 0 293.78 402.56
  A 2.72 2.72 0.0 0 0 291.06 405.28
  A 2.72 2.72 0.0 0 0 293.78 408.00
  A 2.72 2.72 0.0 0 0 296.50 405.28"
/>
<path stroke="#a89972" vector-effect="non-scaling-stroke" d="
  M 189.74 415.13
  A 0.52 0.51 84.8 0 1 188.99 414.50
  L 190.88 409.88
  Q 191.10 409.34 190.55 409.15
  L 188.55 408.45
  Q 187.93 408.24 187.66 408.83
  L 176.55 432.95
  Q 176.33 433.41 176.79 433.64
  L 179.49 435.00
  Q 180.07 435.29 180.33 434.69
  C 184.11 426.07 187.66 412.44 198.22 416.33
  Q 198.80 416.55 199.04 415.98
  L 200.02 413.61
  Q 200.24 413.06 199.71 412.82
  C 195.27 410.76 193.19 412.88 189.74 415.13"
/>
<path stroke="#a89972" vector-effect="non-scaling-stroke" d="
  M 250.35 430.24
  C 254.57 428.09 258.19 424.90 257.08 419.81
  C 255.04 410.48 241.66 411.69 235.15 412.24
  Q 234.51 412.29 234.49 412.94
  L 233.50 450.51
  A 0.78 0.78 0.0 0 0 234.13 451.30
  C 239.96 452.40 249.46 452.70 254.30 448.84
  C 261.21 443.32 258.55 433.72 250.42 431.15
  A 0.49 0.49 0.0 0 1 250.35 430.24"
/>
<path stroke="#a89972" vector-effect="non-scaling-stroke" d="
  M 299.1455 412.9968
  A 0.40 0.40 0.0 0 0 298.6260 412.7730
  L 295.4855 414.0228
  A 0.40 0.40 0.0 0 0 295.2617 414.5423
  L 305.2745 439.7032
  A 0.40 0.40 0.0 0 0 305.7940 439.9270
  L 308.9345 438.6772
  A 0.40 0.40 0.0 0 0 309.1583 438.1577
  L 299.1455 412.9968"
/>
<path stroke="#a89972" vector-effect="non-scaling-stroke" d="
  M 238.27 416.12
  L 238.31 428.20
  A 1.07 1.07 0.0 0 0 239.38 429.26
  L 244.76 429.24
  A 8.25 6.81 -0.2 0 0 252.99 422.40
  L 252.99 421.80
  A 8.25 6.81 -0.2 0 0 244.72 415.02
  L 239.34 415.04
  A 1.07 1.07 0.0 0 0 238.27 416.12"
/>
<path stroke="#a89972" vector-effect="non-scaling-stroke" d="
  M 238.08 433.42
  L 237.64 447.48
  A 1.37 1.37 0.0 0 0 238.97 448.89
  L 243.54 449.03
  A 9.98 7.93 1.8 0 0 253.76 441.42
  L 253.79 440.48
  A 9.98 7.93 1.8 0 0 244.06 432.24
  L 239.50 432.10
  A 1.37 1.37 0.0 0 0 238.08 433.42"
/>
<path stroke="#898167" vector-effect="non-scaling-stroke" d="
  M 239.33 416.94
  L 239.27 427.28
  A 0.97 0.97 0.0 0 0 240.24 428.25
  L 244.47 428.27
  A 7.50 5.91 0.3 0 0 252.00 422.40
  L 252.00 421.94
  A 7.50 5.91 0.3 0 0 244.53 415.99
  L 240.30 415.97
  A 0.97 0.97 0.0 0 0 239.33 416.94"
/>
<path stroke="#a89972" vector-effect="non-scaling-stroke" d="
  M 288.99 441.33
  L 290.15 444.93
  Q 290.30 445.41 290.78 445.29
  L 293.13 444.73
  Q 293.63 444.61 293.51 444.11
  L 287.19 418.20
  A 0.72 0.71 -13.0 0 0 286.33 417.67
  L 283.51 418.34
  Q 283.06 418.44 283.16 418.89
  C 284.20 423.67 288.22 435.42 286.75 439.70
  C 285.33 443.82 279.41 447.21 275.53 443.97
  C 271.55 440.64 269.75 427.70 268.54 422.49
  Q 268.40 421.90 267.82 422.06
  L 264.85 422.86
  Q 264.29 423.01 264.42 423.56
  Q 266.47 432.43 268.88 441.15
  C 270.99 448.77 279.05 451.36 284.88 446.22
  C 286.38 444.90 287.16 443.10 288.07 441.26
  Q 288.62 440.17 288.99 441.33"
/>
<path stroke="#a89972" vector-effect="non-scaling-stroke" d="
  M 206.1033 446.0183
  A 14.78 13.74 111.0 0 0 224.2274 437.1440
  A 14.78 13.74 111.0 0 0 216.6967 418.4217
  A 14.78 13.74 111.0 0 0 198.5726 427.2960
  A 14.78 13.74 111.0 0 0 206.1033 446.0183"
/>
<path stroke="#a89972" vector-effect="non-scaling-stroke" d="
  M 207.9608 443.5151
  A 11.83 9.39 106.8 0 0 220.3692 434.9040
  A 11.83 9.39 106.8 0 0 214.7992 420.8649
  A 11.83 9.39 106.8 0 0 202.3908 429.4760
  A 11.83 9.39 106.8 0 0 207.9608 443.5151"
/>
<path stroke="#898167" vector-effect="non-scaling-stroke" d="
  M 208.4904 442.4995
  A 10.73 8.26 105.9 0 0 219.3740 434.4429
  A 10.73 8.26 105.9 0 0 214.3696 421.8605
  A 10.73 8.26 105.9 0 0 203.4860 429.9171
  A 10.73 8.26 105.9 0 0 208.4904 442.4995"
/>
<path stroke="#898167" vector-effect="non-scaling-stroke" d="
  M 239.06 434.22
  L 238.67 446.68
  A 1.05 1.05 0.0 0 0 239.68 447.76
  L 243.19 447.87
  A 9.34 7.05 1.8 0 0 252.75 441.12
  L 252.76 440.66
  A 9.34 7.05 1.8 0 0 243.65 433.32
  L 240.14 433.21
  A 1.05 1.05 0.0 0 0 239.06 434.22"
/>
</g>
<path fill="#97958f" d="
  M 31.39 284.33
  C 9.81 166.06 86.77 55.38 201.75 28.70
  C 268.24 13.27 340.27 30.35 393.42 73.58
  C 450.47 119.98 480.68 191.40 474.25 264.75
  C 464.86 371.80 378.32 456.45 271.79 465.83
  C 157.03 475.93 52.20 398.39 31.39 284.33
  Z
  M 249.05 51.49
  L 248.88 49.41
  Q 248.83 48.75 248.17 48.75
  L 243.83 48.75
  Q 243.34 48.75 243.33 49.24
  L 242.78 78.31
  Q 242.77 78.85 243.31 78.84
  L 248.42 78.74
  Q 249.03 78.73 249.04 78.11
  Q 249.16 69.69 249.58 61.31
  C 250.04 51.92 262.28 51.09 262.47 60.07
  Q 262.56 64.25 262.17 78.67
  Q 262.16 79.25 262.74 79.25
  L 268.02 79.25
  A 0.79 0.79 0.0 0 0 268.80 78.36
  C 267.84 71.00 269.74 63.87 268.69 57.57
  C 267.13 48.24 256.82 45.49 249.71 51.76
  Q 249.12 52.29 249.05 51.49
  Z
  M 224.7025 81.7553
  A 15.81 14.86 86.8 0 0 238.6568 65.1405
  A 15.81 14.86 86.8 0 0 222.9375 50.1847
  A 15.81 14.86 86.8 0 0 208.9832 66.7995
  A 15.81 14.86 86.8 0 0 224.7025 81.7553
  Z
  M 283.27 54.23
  L 283.69 51.97
  Q 283.80 51.40 283.23 51.29
  L 278.86 50.37
  Q 278.27 50.25 278.15 50.84
  L 272.62 79.16
  Q 272.50 79.77 273.11 79.89
  L 278.14 80.84
  Q 278.71 80.95 278.81 80.38
  Q 280.23 72.53 281.92 64.77
  C 284.19 54.34 296.85 55.38 295.00 65.77
  Q 293.44 74.46 291.66 83.15
  Q 291.55 83.66 292.07 83.74
  L 297.11 84.60
  Q 297.67 84.70 297.79 84.14
  Q 300.68 70.29 301.42 65.93
  C 303.30 54.86 292.97 48.92 283.70 54.53
  Q 283.15 54.86 283.27 54.23
  Z
  M 205.36 87.68
  A 0.77 0.77 0.0 0 1 205.12 86.27
  L 211.24 82.65
  Q 211.93 82.25 211.54 81.55
  L 209.48 77.81
  Q 209.14 77.21 208.65 77.68
  C 191.86 93.66 180.57 57.79 203.16 60.81
  Q 203.89 60.90 203.82 60.17
  L 203.43 55.78
  Q 203.39 55.28 202.88 55.26
  C 178.79 54.31 177.76 86.13 200.13 87.50
  Q 200.62 87.53 200.50 88.01
  L 199.83 90.84
  A 1.03 1.03 0.0 0 0 201.19 92.04
  Q 202.86 91.41 204.44 92.22
  Q 205.07 92.54 204.75 93.17
  C 203.86 94.96 201.86 94.56 200.24 94.56
  Q 199.75 94.56 199.75 95.05
  L 199.75 97.75
  Q 199.75 98.29 200.29 98.37
  C 208.33 99.55 214.68 89.51 205.36 87.68
  Z
  M 310.76 75.04
  L 328.01 81.69
  A 1.50 1.50 0.0 0 0 329.93 80.88
  C 333.06 73.60 332.47 65.24 324.15 61.97
  C 303.13 53.71 292.07 94.10 323.09 92.91
  Q 323.60 92.89 323.67 92.38
  L 324.15 88.75
  Q 324.23 88.14 323.62 88.13
  C 316.14 88.09 307.37 84.32 310.06 75.38
  Q 310.22 74.83 310.76 75.04
  Z
  M 180.99 91.81
  Q 181.73 92.29 182.01 93.19
  Q 182.19 93.78 182.75 93.50
  L 187.05 91.35
  Q 187.55 91.10 187.28 90.61
  Q 182.68 82.25 178.55 73.72
  C 173.26 62.81 161.01 67.28 155.72 75.34
  Q 155.46 75.74 155.78 76.09
  L 158.14 78.66
  A 0.63 0.63 0.0 0 0 159.13 78.59
  C 161.70 74.83 169.70 68.79 172.56 76.10
  Q 172.79 76.67 172.22 76.91
  C 165.27 79.83 156.64 88.74 163.68 96.39
  C 169.02 102.20 177.38 98.49 180.27 92.03
  Q 180.51 91.49 180.99 91.81
  Z
  M 119.29 98.25
  L 145.03 115.48
  Q 145.52 115.81 145.99 115.46
  L 148.95 113.32
  A 0.79 0.79 0.0 0 0 149.24 112.43
  L 139.26 81.72
  A 0.18 0.18 0.0 0 1 139.57 81.55
  L 159.45 104.58
  Q 159.91 105.12 160.47 104.69
  L 164.52 101.56
  A 0.41 0.40 50.6 0 0 164.57 100.97
  L 137.79 70.53
  Q 137.32 70.00 136.75 70.44
  L 131.75 74.34
  Q 131.25 74.73 131.45 75.34
  L 141.46 105.78
  A 0.07 0.07 0.0 0 1 141.36 105.86
  L 114.75 88.39
  Q 114.16 88.00 113.60 88.43
  L 108.68 92.21
  Q 108.10 92.65 108.51 93.26
  L 130.93 126.84
  Q 131.26 127.33 131.74 126.98
  L 135.31 124.31
  A 1.18 1.18 0.0 0 0 135.57 122.70
  L 118.98 98.55
  Q 118.33 97.61 119.29 98.25
  Z
  M 344.73 75.23
  L 345.93 73.04
  Q 346.17 72.59 345.71 72.36
  L 341.65 70.32
  Q 341.12 70.06 340.84 70.58
  L 327.18 95.98
  Q 326.87 96.56 327.45 96.87
  L 331.93 99.26
  Q 332.53 99.57 332.83 98.97
  C 336.63 91.37 342.58 75.35 351.53 82.05
  Q 352.06 82.45 352.37 81.87
  L 354.64 77.66
  A 0.99 0.99 0.0 0 0 354.26 76.33
  Q 349.95 73.84 345.31 75.86
  Q 344.10 76.39 344.73 75.23
  Z
  M 369.84 75.75
  A 3.82 3.82 0.0 0 0 366.02 71.93
  A 3.82 3.82 0.0 0 0 362.20 75.75
  A 3.82 3.82 0.0 0 0 366.02 79.57
  A 3.82 3.82 0.0 0 0 369.84 75.75
  Z
  M 364.1901 84.4125
  A 0.75 0.75 0.0 0 0 363.9786 83.3731
  L 359.8092 80.6134
  A 0.75 0.75 0.0 0 0 358.7698 80.8249
  L 342.8299 104.9075
  A 0.75 0.75 0.0 0 0 343.0414 105.9469
  L 347.2108 108.7066
  A 0.75 0.75 0.0 0 0 348.2502 108.4951
  L 364.1901 84.4125
  Z
  M 372.28 120.96
  C 365.70 118.01 358.43 112.61 363.79 104.59
  Q 364.11 104.10 364.56 104.48
  L 379.17 116.83
  Q 379.60 117.19 380.02 116.82
  C 387.52 110.26 388.08 99.46 378.62 94.34
  C 367.88 88.52 353.29 101.12 356.44 112.80
  C 358.07 118.82 364.26 123.39 370.05 125.39
  Q 370.65 125.60 370.94 125.04
  L 372.59 121.85
  Q 372.90 121.24 372.28 120.96
  Z
  M 405.0798 245.2680
  A 153.58 151.71 0.1 0 0 251.7648 93.2902
  A 153.58 151.71 0.1 0 0 97.9202 244.7320
  A 153.58 151.71 0.1 0 0 251.2352 396.7098
  A 153.58 151.71 0.1 0 0 405.0798 245.2680
  Z
  M 349.67 414.86
  L 350.86 416.94
  Q 351.17 417.47 351.70 417.16
  L 355.66 414.83
  Q 356.14 414.55 355.85 414.08
  L 333.25 377.75
  A 0.43 0.43 0.0 0 0 332.65 377.61
  L 328.23 380.39
  A 0.75 0.75 0.0 0 0 327.99 381.42
  L 335.44 393.56
  Q 335.84 394.19 335.09 394.18
  C 328.35 394.09 322.90 398.00 321.54 404.61
  C 318.30 420.26 341.80 435.73 349.35 414.89
  A 0.18 0.18 0.0 0 1 349.67 414.86
  Z
  M 146.63 417.53
  L 150.94 420.31
  Q 151.49 420.67 151.84 420.10
  L 159.48 407.67
  A 0.84 0.83 34.8 0 1 160.72 407.45
  C 169.21 414.21 181.53 414.34 185.28 402.26
  C 188.44 392.08 174.76 385.43 168.24 382.50
  Q 167.75 382.27 167.46 382.73
  L 146.41 416.54
  A 0.72 0.72 0.0 0 0 146.63 417.53
  Z
  M 306.1495 393.9064
  A 0.59 0.59 0.0 0 0 305.3620 393.6306
  L 300.6584 395.8943
  A 0.59 0.59 0.0 0 0 300.3826 396.6818
  L 318.8305 435.0136
  A 0.59 0.59 0.0 0 0 319.6180 435.2894
  L 324.3216 433.0257
  A 0.59 0.59 0.0 0 0 324.5974 432.2382
  L 306.1495 393.9064
  Z
  M 297.58 405.25
  A 3.79 3.79 0.0 0 0 293.79 401.46
  A 3.79 3.79 0.0 0 0 290.00 405.25
  A 3.79 3.79 0.0 0 0 293.79 409.04
  A 3.79 3.79 0.0 0 0 297.58 405.25
  Z
  M 191.23 411.96
  L 192.16 409.45
  Q 192.36 408.91 191.84 408.68
  L 187.94 406.92
  Q 187.41 406.68 187.16 407.21
  L 175.06 433.52
  Q 174.85 433.98 175.30 434.20
  L 179.99 436.48
  Q 180.53 436.74 180.79 436.19
  Q 183.68 430.03 186.61 423.92
  C 189.26 418.41 192.23 414.20 198.67 417.93
  Q 199.20 418.23 199.45 417.68
  L 201.26 413.70
  A 1.28 1.27 24.9 0 0 200.64 412.02
  Q 196.06 409.85 191.69 412.35
  Q 190.93 412.79 191.23 411.96
  Z
  M 252.93 430.16
  C 257.95 427.37 259.93 421.44 256.73 416.52
  C 252.39 409.84 240.47 410.66 234.14 411.40
  Q 233.56 411.47 233.54 412.06
  L 232.42 451.51
  A 0.79 0.78 4.9 0 0 233.10 452.31
  C 242.10 453.71 257.23 454.46 259.11 442.48
  C 259.93 437.26 257.38 433.30 252.93 430.85
  Q 252.30 430.51 252.93 430.16
  Z
  M 299.8273 411.6722
  A 0.50 0.50 0.0 0 0 299.1784 411.3914
  L 294.1390 413.3866
  A 0.50 0.50 0.0 0 0 293.8582 414.0355
  L 304.5927 441.1478
  A 0.50 0.50 0.0 0 0 305.2416 441.4286
  L 310.2810 439.4334
  A 0.50 0.50 0.0 0 0 310.5618 438.7845
  L 299.8273 411.6722
  Z
  M 288.68 443.80
  L 289.30 446.13
  Q 289.47 446.77 290.12 446.63
  L 294.35 445.68
  Q 295.01 445.53 294.85 444.87
  L 288.07 417.16
  Q 287.81 416.09 286.75 416.35
  L 282.38 417.41
  A 0.83 0.83 0.0 0 0 281.78 418.41
  C 282.87 422.85 287.24 436.02 285.56 439.86
  C 283.95 443.53 278.22 446.18 275.37 441.89
  C 272.07 436.94 270.75 427.21 269.25 421.29
  Q 269.12 420.80 268.63 420.90
  L 263.61 421.98
  Q 262.96 422.12 263.11 422.77
  Q 266.05 435.31 267.82 441.66
  C 270.76 452.27 282.93 452.17 288.28 443.74
  A 0.22 0.22 0.0 0 1 288.68 443.80
  Z
  M 205.6525 446.9773
  A 15.85 14.86 111.3 0 0 225.2549 437.6079
  A 15.85 14.86 111.3 0 0 217.1675 417.4427
  A 15.85 14.86 111.3 0 0 197.5651 426.8121
  A 15.85 14.86 111.3 0 0 205.6525 446.9773
  Z"
/>
<path fill="#7b6c3e" d="
  M 249.71 51.76
  C 256.82 45.49 267.13 48.24 268.69 57.57
  C 269.74 63.87 267.84 71.00 268.80 78.36
  A 0.79 0.79 0.0 0 1 268.02 79.25
  L 262.74 79.25
  Q 262.16 79.25 262.17 78.67
  Q 262.56 64.25 262.47 60.07
  C 262.28 51.09 250.04 51.92 249.58 61.31
  Q 249.16 69.69 249.04 78.11
  Q 249.03 78.73 248.42 78.74
  L 243.31 78.84
  Q 242.77 78.85 242.78 78.31
  L 243.33 49.24
  Q 243.34 48.75 243.83 48.75
  L 248.17 48.75
  Q 248.83 48.75 248.88 49.41
  L 249.05 51.49
  Q 249.12 52.29 249.71 51.76
  Z
  M 248.09 54.21
  L 247.95 50.34
  Q 247.93 49.75 247.34 49.75
  L 244.94 49.75
  Q 244.38 49.75 244.37 50.31
  L 243.79 77.01
  A 0.72 0.72 0.0 0 0 244.51 77.75
  L 247.45 77.75
  Q 247.98 77.75 248.00 77.22
  C 248.18 72.09 247.24 60.52 249.78 56.36
  C 253.53 50.20 263.38 52.00 263.50 60.01
  Q 263.59 66.48 263.16 77.62
  Q 263.14 78.25 263.77 78.25
  L 266.72 78.25
  Q 267.35 78.25 267.38 77.62
  Q 268.02 64.48 267.73 58.99
  C 267.18 48.27 254.90 46.50 248.90 54.46
  Q 248.14 55.48 248.09 54.21
  Z"
/>
<path fill="#d4c5a5" d="
  M 248.90 54.46
  C 254.90 46.50 267.18 48.27 267.73 58.99
  Q 268.02 64.48 267.38 77.62
  Q 267.35 78.25 266.72 78.25
  L 263.77 78.25
  Q 263.14 78.25 263.16 77.62
  Q 263.59 66.48 263.50 60.01
  C 263.38 52.00 253.53 50.20 249.78 56.36
  C 247.24 60.52 248.18 72.09 248.00 77.22
  Q 247.98 77.75 247.45 77.75
  L 244.51 77.75
  A 0.72 0.72 0.0 0 1 243.79 77.01
  L 244.37 50.31
  Q 244.38 49.75 244.94 49.75
  L 247.34 49.75
  Q 247.93 49.75 247.95 50.34
  L 248.09 54.21
  Q 248.14 55.48 248.90 54.46
  Z"
/>
<path fill="#7b6c3e" d="
  M 224.7025 81.7553
  A 15.81 14.86 86.8 0 1 208.9832 66.7995
  A 15.81 14.86 86.8 0 1 222.9375 50.1847
  A 15.81 14.86 86.8 0 1 238.6568 65.1405
  A 15.81 14.86 86.8 0 1 224.7025 81.7553
  Z
  M 224.5525 80.7823
  A 14.79 13.76 87.2 0 0 237.5736 65.3378
  A 14.79 13.76 87.2 0 0 223.1075 51.2377
  A 14.79 13.76 87.2 0 0 210.0864 66.6822
  A 14.79 13.76 87.2 0 0 224.5525 80.7823
  Z"
/>
<path fill="#7b6c3e" d="
  M 283.70 54.53
  C 292.97 48.92 303.30 54.86 301.42 65.93
  Q 300.68 70.29 297.79 84.14
  Q 297.67 84.70 297.11 84.60
  L 292.07 83.74
  Q 291.55 83.66 291.66 83.15
  Q 293.44 74.46 295.00 65.77
  C 296.85 55.38 284.19 54.34 281.92 64.77
  Q 280.23 72.53 278.81 80.38
  Q 278.71 80.95 278.14 80.84
  L 273.11 79.89
  Q 272.50 79.77 272.62 79.16
  L 278.15 50.84
  Q 278.27 50.25 278.86 50.37
  L 283.23 51.29
  Q 283.80 51.40 283.69 51.97
  L 283.27 54.23
  Q 283.15 54.86 283.70 54.53
  Z
  M 281.95 56.48
  L 282.47 52.64
  Q 282.53 52.18 282.08 52.08
  L 279.75 51.58
  Q 279.11 51.44 278.98 52.08
  L 273.81 78.32
  Q 273.67 79.02 274.38 79.14
  L 277.35 79.66
  Q 277.86 79.74 277.95 79.23
  Q 279.39 71.35 281.17 63.55
  C 283.63 52.72 298.33 55.03 296.12 65.60
  Q 294.38 73.88 292.79 82.25
  Q 292.69 82.81 293.25 82.91
  L 296.32 83.48
  Q 296.88 83.59 297.00 83.03
  Q 298.79 74.14 300.47 65.26
  C 302.45 54.74 290.09 49.61 282.82 56.91
  Q 281.75 57.97 281.95 56.48
  Z"
/>
<path fill="#d4c5a5" d="
  M 224.5525 80.7823
  A 14.79 13.76 87.2 0 1 210.0864 66.6822
  A 14.79 13.76 87.2 0 1 223.1075 51.2377
  A 14.79 13.76 87.2 0 1 237.5736 65.3378
  A 14.79 13.76 87.2 0 1 224.5525 80.7823
  Z
  M 225.6071 77.5978
  A 11.81 9.36 81.1 0 0 233.0273 64.4819
  A 11.81 9.36 81.1 0 0 221.9529 54.2622
  A 11.81 9.36 81.1 0 0 214.5327 67.3781
  A 11.81 9.36 81.1 0 0 225.6071 77.5978
  Z"
/>
<path fill="#d4c5a5" d="
  M 282.82 56.91
  C 290.09 49.61 302.45 54.74 300.47 65.26
  Q 298.79 74.14 297.00 83.03
  Q 296.88 83.59 296.32 83.48
  L 293.25 82.91
  Q 292.69 82.81 292.79 82.25
  Q 294.38 73.88 296.12 65.60
  C 298.33 55.03 283.63 52.72 281.17 63.55
  Q 279.39 71.35 277.95 79.23
  Q 277.86 79.74 277.35 79.66
  L 274.38 79.14
  Q 273.67 79.02 273.81 78.32
  L 278.98 52.08
  Q 279.11 51.44 279.75 51.58
  L 282.08 52.08
  Q 282.53 52.18 282.47 52.64
  L 281.95 56.48
  Q 281.75 57.97 282.82 56.91
  Z"
/>
<path fill="#7b6c3e" d="
  M 225.6071 77.5978
  A 11.81 9.36 81.1 0 1 214.5327 67.3781
  A 11.81 9.36 81.1 0 1 221.9529 54.2622
  A 11.81 9.36 81.1 0 1 233.0273 64.4819
  A 11.81 9.36 81.1 0 1 225.6071 77.5978
  Z
  M 225.2291 76.6657
  A 10.73 8.33 82.4 0 0 232.0668 64.9283
  A 10.73 8.33 82.4 0 0 222.3909 55.3943
  A 10.73 8.33 82.4 0 0 215.5532 67.1317
  A 10.73 8.33 82.4 0 0 225.2291 76.6657
  Z"
/>
<path fill="#7b6c3e" d="
  M 205.36 87.68
  C 214.68 89.51 208.33 99.55 200.29 98.37
  Q 199.75 98.29 199.75 97.75
  L 199.75 95.05
  Q 199.75 94.56 200.24 94.56
  C 201.86 94.56 203.86 94.96 204.75 93.17
  Q 205.07 92.54 204.44 92.22
  Q 202.86 91.41 201.19 92.04
  A 1.03 1.03 0.0 0 1 199.83 90.84
  L 200.50 88.01
  Q 200.62 87.53 200.13 87.50
  C 177.76 86.13 178.79 54.31 202.88 55.26
  Q 203.39 55.28 203.43 55.78
  L 203.82 60.17
  Q 203.89 60.90 203.16 60.81
  C 180.57 57.79 191.86 93.66 208.65 77.68
  Q 209.14 77.21 209.48 77.81
  L 211.54 81.55
  Q 211.93 82.25 211.24 82.65
  L 205.12 86.27
  A 0.77 0.77 0.0 0 0 205.36 87.68
  Z
  M 202.04 86.51
  L 201.14 90.17
  Q 200.99 90.79 201.60 90.63
  C 207.27 89.15 208.05 96.33 201.60 95.77
  Q 201.00 95.72 201.00 96.32
  L 201.00 96.94
  Q 201.00 97.49 201.56 97.49
  C 209.13 97.49 211.29 87.86 203.50 89.05
  Q 202.80 89.16 202.99 88.48
  L 203.75 85.88
  Q 203.90 85.35 204.40 85.09
  L 209.93 82.20
  Q 210.51 81.90 210.18 81.33
  L 209.12 79.55
  Q 208.81 79.02 208.34 79.41
  C 191.08 93.59 178.96 58.99 201.90 59.53
  Q 202.50 59.55 202.50 58.95
  L 202.50 56.96
  Q 202.50 56.32 201.86 56.32
  C 178.06 56.39 181.41 89.02 201.49 85.91
  Q 202.22 85.79 202.04 86.51
  Z"
/>
<ellipse fill="#97958f" cx="0.00" cy="0.00" transform="translate(223.81,66.03) rotate(82.4)" rx="10.73" ry="8.33"/>
<path fill="#d4c5a5" d="
  M 201.49 85.91
  C 181.41 89.02 178.06 56.39 201.86 56.32
  Q 202.50 56.32 202.50 56.96
  L 202.50 58.95
  Q 202.50 59.55 201.90 59.53
  C 178.96 58.99 191.08 93.59 208.34 79.41
  Q 208.81 79.02 209.12 79.55
  L 210.18 81.33
  Q 210.51 81.90 209.93 82.20
  L 204.40 85.09
  Q 203.90 85.35 203.75 85.88
  L 202.99 88.48
  Q 202.80 89.16 203.50 89.05
  C 211.29 87.86 209.13 97.49 201.56 97.49
  Q 201.00 97.49 201.00 96.94
  L 201.00 96.32
  Q 201.00 95.72 201.60 95.77
  C 208.05 96.33 207.27 89.15 201.60 90.63
  Q 200.99 90.79 201.14 90.17
  L 202.04 86.51
  Q 202.22 85.79 201.49 85.91
  Z"
/>
<path fill="#7b6c3e" d="
  M 310.06 75.38
  C 307.37 84.32 316.14 88.09 323.62 88.13
  Q 324.23 88.14 324.15 88.75
  L 323.67 92.38
  Q 323.60 92.89 323.09 92.91
  C 292.07 94.10 303.13 53.71 324.15 61.97
  C 332.47 65.24 333.06 73.60 329.93 80.88
  A 1.50 1.50 0.0 0 1 328.01 81.69
  L 310.76 75.04
  Q 310.22 74.83 310.06 75.38
  Z
  M 317.76 61.90
  C 308.40 62.71 302.08 75.15 305.80 83.41
  C 308.37 89.13 315.97 91.77 322.11 91.92
  Q 322.75 91.93 322.75 91.29
  L 322.75 89.77
  Q 322.75 89.28 322.27 89.23
  C 313.53 88.24 306.22 84.38 309.32 74.09
  A 0.54 0.54 0.0 0 1 310.03 73.74
  L 328.27 80.66
  Q 328.67 80.81 328.85 80.43
  C 333.13 71.39 328.81 60.94 317.76 61.90
  Z"
/>
<path fill="#d4c5a5" d="
  M 305.80 83.41
  C 302.08 75.15 308.40 62.71 317.76 61.90
  C 328.81 60.94 333.13 71.39 328.85 80.43
  Q 328.67 80.81 328.27 80.66
  L 310.03 73.74
  A 0.54 0.54 0.0 0 0 309.32 74.09
  C 306.22 84.38 313.53 88.24 322.27 89.23
  Q 322.75 89.28 322.75 89.77
  L 322.75 91.29
  Q 322.75 91.93 322.11 91.92
  C 315.97 91.77 308.37 89.13 305.80 83.41
  Z
  M 311.41 71.36
  L 325.54 76.64
  A 0.59 0.59 0.0 0 0 326.29 76.29
  L 326.47 75.81
  A 8.48 8.13 -69.5 0 0 321.83 65.02
  L 321.83 65.02
  A 8.48 8.13 -69.5 0 0 311.24 70.12
  L 311.06 70.60
  A 0.59 0.59 0.0 0 0 311.41 71.36
  Z"
/>
<path fill="#7b6c3e" d="
  M 311.41 71.36
  A 0.59 0.59 0.0 0 1 311.06 70.60
  L 311.24 70.12
  A 8.48 8.13 -69.5 0 1 321.83 65.02
  L 321.83 65.02
  A 8.48 8.13 -69.5 0 1 326.47 75.81
  L 326.29 76.29
  A 0.59 0.59 0.0 0 1 325.54 76.64
  L 311.41 71.36
  Z
  M 312.80 70.87
  L 324.94 75.27
  A 0.47 0.47 0.0 0 0 325.55 74.98
  L 325.61 74.81
  A 6.88 6.81 19.9 0 0 321.46 66.07
  L 321.36 66.04
  A 6.88 6.81 19.9 0 0 312.58 70.10
  L 312.51 70.27
  A 0.47 0.47 0.0 0 0 312.80 70.87
  Z"
/>
<path fill="#97958f" d="
  M 312.80 70.87
  A 0.47 0.47 0.0 0 1 312.51 70.27
  L 312.58 70.10
  A 6.88 6.81 19.9 0 1 321.36 66.04
  L 321.46 66.07
  A 6.88 6.81 19.9 0 1 325.61 74.81
  L 325.55 74.98
  A 0.47 0.47 0.0 0 1 324.94 75.27
  L 312.80 70.87
  Z"
/>
<path fill="#7b6c3e" d="
  M 180.27 92.03
  C 177.38 98.49 169.02 102.20 163.68 96.39
  C 156.64 88.74 165.27 79.83 172.22 76.91
  Q 172.79 76.67 172.56 76.10
  C 169.70 68.79 161.70 74.83 159.13 78.59
  A 0.63 0.63 0.0 0 1 158.14 78.66
  L 155.78 76.09
  Q 155.46 75.74 155.72 75.34
  C 161.01 67.28 173.26 62.81 178.55 73.72
  Q 182.68 82.25 187.28 90.61
  Q 187.55 91.10 187.05 91.35
  L 182.75 93.50
  Q 182.19 93.78 182.01 93.19
  Q 181.73 92.29 180.99 91.81
  Q 180.51 91.49 180.27 92.03
  Z
  M 181.03 89.55
  L 182.52 91.70
  Q 182.87 92.20 183.41 91.92
  L 185.33 90.95
  Q 185.86 90.69 185.59 90.16
  C 182.73 84.63 178.61 73.72 174.56 70.26
  C 168.99 65.51 161.08 70.02 157.07 75.13
  Q 156.70 75.61 157.14 76.03
  L 158.15 76.99
  Q 158.60 77.41 158.97 76.92
  C 162.96 71.74 171.13 68.25 174.07 76.58
  Q 174.24 77.06 173.78 77.29
  C 167.98 80.20 157.70 87.43 163.96 95.03
  C 167.65 99.51 174.55 98.75 177.80 94.22
  Q 178.49 93.26 180.18 89.62
  Q 180.54 88.85 181.03 89.55
  Z"
/>
<path fill="#d4c5a5" d="
  M 180.18 89.62
  Q 178.49 93.26 177.80 94.22
  C 174.55 98.75 167.65 99.51 163.96 95.03
  C 157.70 87.43 167.98 80.20 173.78 77.29
  Q 174.24 77.06 174.07 76.58
  C 171.13 68.25 162.96 71.74 158.97 76.92
  Q 158.60 77.41 158.15 76.99
  L 157.14 76.03
  Q 156.70 75.61 157.07 75.13
  C 161.08 70.02 168.99 65.51 174.56 70.26
  C 178.61 73.72 182.73 84.63 185.59 90.16
  Q 185.86 90.69 185.33 90.95
  L 183.41 91.92
  Q 182.87 92.20 182.52 91.70
  L 181.03 89.55
  Q 180.54 88.85 180.18 89.62
  Z
  M 166.10 88.02
  C 164.44 99.19 185.87 95.14 175.71 79.77
  Q 175.47 79.40 175.06 79.56
  C 171.41 80.93 166.69 83.98 166.10 88.02
  Z"
/>
<path fill="#7b6c3e" d="
  M 118.98 98.55
  L 135.57 122.70
  A 1.18 1.18 0.0 0 1 135.31 124.31
  L 131.74 126.98
  Q 131.26 127.33 130.93 126.84
  L 108.51 93.26
  Q 108.10 92.65 108.68 92.21
  L 113.60 88.43
  Q 114.16 88.00 114.75 88.39
  L 141.36 105.86
  A 0.07 0.07 0.0 0 0 141.46 105.78
  L 131.45 75.34
  Q 131.25 74.73 131.75 74.34
  L 136.75 70.44
  Q 137.32 70.00 137.79 70.53
  L 164.57 100.97
  A 0.41 0.40 50.6 0 1 164.52 101.56
  L 160.47 104.69
  Q 159.91 105.12 159.45 104.58
  L 139.57 81.55
  A 0.18 0.18 0.0 0 0 139.26 81.72
  L 149.24 112.43
  A 0.79 0.79 0.0 0 1 148.95 113.32
  L 145.99 115.46
  Q 145.52 115.81 145.03 115.48
  L 119.29 98.25
  Q 118.33 97.61 118.98 98.55
  Z
  M 136.66 77.49
  A 0.39 0.38 15.6 0 1 137.32 77.12
  L 159.46 103.03
  Q 160.00 103.67 160.65 103.13
  L 162.66 101.47
  Q 163.15 101.06 162.73 100.58
  L 137.60 72.03
  Q 137.24 71.63 136.81 71.95
  L 133.00 74.80
  Q 132.51 75.17 132.70 75.75
  L 143.46 108.15
  A 0.26 0.26 0.0 0 1 143.07 108.45
  L 114.86 89.68
  Q 114.31 89.32 113.79 89.71
  L 110.37 92.28
  Q 109.56 92.89 110.12 93.74
  L 131.24 125.20
  Q 131.56 125.68 132.00 125.32
  L 133.98 123.69
  Q 134.57 123.22 134.14 122.60
  L 114.87 94.67
  A 0.37 0.37 0.0 0 1 115.39 94.15
  L 144.84 114.14
  Q 145.35 114.49 145.87 114.15
  L 147.63 113.02
  Q 148.25 112.62 148.02 111.91
  L 136.66 77.49
  Z"
/>
<path fill="#7b6c3e" d="
  M 345.31 75.86
  Q 349.95 73.84 354.26 76.33
  A 0.99 0.99 0.0 0 1 354.64 77.66
  L 352.37 81.87
  Q 352.06 82.45 351.53 82.05
  C 342.58 75.35 336.63 91.37 332.83 98.97
  Q 332.53 99.57 331.93 99.26
  L 327.45 96.87
  Q 326.87 96.56 327.18 95.98
  L 340.84 70.58
  Q 341.12 70.06 341.65 70.32
  L 345.71 72.36
  Q 346.17 72.59 345.93 73.04
  L 344.73 75.23
  Q 344.10 76.39 345.31 75.86
  Z
  M 342.17 77.89
  L 344.38 73.51
  Q 344.59 73.11 344.19 72.90
  L 342.04 71.77
  Q 341.60 71.53 341.36 71.98
  L 328.63 95.59
  Q 328.36 96.09 328.87 96.37
  L 331.45 97.75
  Q 332.04 98.07 332.35 97.47
  C 336.68 89.09 340.93 75.88 351.30 80.32
  Q 351.83 80.54 352.10 80.03
  L 353.37 77.62
  Q 353.63 77.12 353.12 76.89
  Q 347.48 74.38 343.16 78.62
  A 0.62 0.62 0.0 0 1 342.17 77.89
  Z"
/>
<path fill="#d4c5a5" d="
  M 342.17 77.89
  A 0.62 0.62 0.0 0 0 343.16 78.62
  Q 347.48 74.38 353.12 76.89
  Q 353.63 77.12 353.37 77.62
  L 352.10 80.03
  Q 351.83 80.54 351.30 80.32
  C 340.93 75.88 336.68 89.09 332.35 97.47
  Q 332.04 98.07 331.45 97.75
  L 328.87 96.37
  Q 328.36 96.09 328.63 95.59
  L 341.36 71.98
  Q 341.60 71.53 342.04 71.77
  L 344.19 72.90
  Q 344.59 73.11 344.38 73.51
  L 342.17 77.89
  Z"
/>
<path fill="#d4c5a5" d="
  M 136.66 77.49
  L 148.02 111.91
  Q 148.25 112.62 147.63 113.02
  L 145.87 114.15
  Q 145.35 114.49 144.84 114.14
  L 115.39 94.15
  A 0.37 0.37 0.0 0 0 114.87 94.67
  L 134.14 122.60
  Q 134.57 123.22 133.98 123.69
  L 132.00 125.32
  Q 131.56 125.68 131.24 125.20
  L 110.12 93.74
  Q 109.56 92.89 110.37 92.28
  L 113.79 89.71
  Q 114.31 89.32 114.86 89.68
  L 143.07 108.45
  A 0.26 0.26 0.0 0 0 143.46 108.15
  L 132.70 75.75
  Q 132.51 75.17 133.00 74.80
  L 136.81 71.95
  Q 137.24 71.63 137.60 72.03
  L 162.73 100.58
  Q 163.15 101.06 162.66 101.47
  L 160.65 103.13
  Q 160.00 103.67 159.46 103.03
  L 137.32 77.12
  A 0.39 0.38 15.6 0 0 136.66 77.49
  Z"
/>
<path fill="#7b6c3e" d="
  M 369.84 75.75
  A 3.82 3.82 0.0 0 1 366.02 79.57
  A 3.82 3.82 0.0 0 1 362.20 75.75
  A 3.82 3.82 0.0 0 1 366.02 71.93
  A 3.82 3.82 0.0 0 1 369.84 75.75
  Z
  M 368.70 75.71
  A 2.72 2.72 0.0 0 0 365.98 72.99
  A 2.72 2.72 0.0 0 0 363.26 75.71
  A 2.72 2.72 0.0 0 0 365.98 78.43
  A 2.72 2.72 0.0 0 0 368.70 75.71
  Z"
/>
<circle fill="#d4c5a5" cx="365.98" cy="75.71" r="2.72"/>
<path fill="#7b6c3e" d="
  M 175.71 79.77
  C 185.87 95.14 164.44 99.19 166.10 88.02
  C 166.69 83.98 171.41 80.93 175.06 79.56
  Q 175.47 79.40 175.71 79.77
  Z
  M 169.53 92.68
  Q 171.84 94.38 173.65 93.05
  Q 180.49 87.99 175.07 81.41
  Q 174.81 81.10 174.43 81.26
  C 169.77 83.29 163.68 88.35 169.53 92.68
  Z"
/>
<path fill="#7b6c3e" d="
  M 348.2502 108.4951
  A 0.75 0.75 0.0 0 1 347.2108 108.7066
  L 343.0414 105.9469
  A 0.75 0.75 0.0 0 1 342.8299 104.9075
  L 358.7698 80.8249
  A 0.75 0.75 0.0 0 1 359.8092 80.6134
  L 363.9786 83.3731
  A 0.75 0.75 0.0 0 1 364.1901 84.4125
  L 348.2502 108.4951
  Z
  M 362.5447 84.6538
  A 0.52 0.52 0.0 0 0 362.3993 83.9329
  L 359.8339 82.2285
  A 0.52 0.52 0.0 0 0 359.1130 82.3739
  L 344.3153 104.6462
  A 0.52 0.52 0.0 0 0 344.4607 105.3671
  L 347.0261 107.0715
  A 0.52 0.52 0.0 0 0 347.7470 106.9261
  L 362.5447 84.6538
  Z"
/>
<path fill="#97958f" d="
  M 169.53 92.68
  C 163.68 88.35 169.77 83.29 174.43 81.26
  Q 174.81 81.10 175.07 81.41
  Q 180.49 87.99 173.65 93.05
  Q 171.84 94.38 169.53 92.68
  Z"
/>
<rect fill="#d4c5a5" x="-2.06" y="-13.89" transform="translate(353.43,94.65) rotate(33.6)" width="4.12" height="27.78" rx="0.52"/>
<path fill="#7b6c3e" d="
  M 363.79 104.59
  C 358.43 112.61 365.70 118.01 372.28 120.96
  Q 372.90 121.24 372.59 121.85
  L 370.94 125.04
  Q 370.65 125.60 370.05 125.39
  C 364.26 123.39 358.07 118.82 356.44 112.80
  C 353.29 101.12 367.88 88.52 378.62 94.34
  C 388.08 99.46 387.52 110.26 380.02 116.82
  Q 379.60 117.19 379.17 116.83
  L 364.56 104.48
  Q 364.11 104.10 363.79 104.59
  Z
  M 364.41 102.82
  L 379.16 115.38
  A 0.60 0.59 -47.5 0 0 379.97 115.34
  C 391.98 102.76 377.94 87.48 364.56 96.88
  C 351.69 105.93 356.98 119.03 369.64 123.99
  Q 370.26 124.23 370.49 123.61
  L 371.05 122.17
  Q 371.25 121.65 370.73 121.44
  C 362.74 118.24 357.07 110.93 363.61 102.90
  Q 363.97 102.45 364.41 102.82
  Z"
/>
<path fill="#d4c5a5" d="
  M 363.61 102.90
  C 357.07 110.93 362.74 118.24 370.73 121.44
  Q 371.25 121.65 371.05 122.17
  L 370.49 123.61
  Q 370.26 124.23 369.64 123.99
  C 356.98 119.03 351.69 105.93 364.56 96.88
  C 377.94 87.48 391.98 102.76 379.97 115.34
  A 0.60 0.59 -47.5 0 1 379.16 115.38
  L 364.41 102.82
  Q 363.97 102.45 363.61 102.90
  Z
  M 366.51 101.30
  L 377.76 110.60
  A 0.89 0.89 0.0 0 0 379.01 110.49
  L 379.06 110.42
  A 8.69 8.09 -50.4 0 0 378.37 98.57
  L 378.21 98.44
  A 8.69 8.09 -50.4 0 0 366.44 99.98
  L 366.39 100.05
  A 0.89 0.89 0.0 0 0 366.51 101.30
  Z"
/>
<path fill="#7b6c3e" d="
  M 366.51 101.30
  A 0.89 0.89 0.0 0 1 366.39 100.05
  L 366.44 99.98
  A 8.69 8.09 -50.4 0 1 378.21 98.44
  L 378.37 98.57
  A 8.69 8.09 -50.4 0 1 379.06 110.42
  L 379.01 110.49
  A 0.89 0.89 0.0 0 1 377.76 110.60
  L 366.51 101.30
  Z
  M 367.97 101.05
  L 377.58 109.17
  A 0.71 0.71 0.0 0 0 378.58 109.09
  L 378.64 109.01
  A 6.84 6.77 40.2 0 0 377.79 99.43
  L 377.54 99.22
  A 6.84 6.77 40.2 0 0 367.95 99.98
  L 367.89 100.05
  A 0.71 0.71 0.0 0 0 367.97 101.05
  Z"
/>
<path fill="#97958f" d="
  M 367.97 101.05
  A 0.71 0.71 0.0 0 1 367.89 100.05
  L 367.95 99.98
  A 6.84 6.77 40.2 0 1 377.54 99.22
  L 377.79 99.43
  A 6.84 6.77 40.2 0 1 378.64 109.01
  L 378.58 109.09
  A 0.71 0.71 0.0 0 1 377.58 109.17
  L 367.97 101.05
  Z"
/>
<path fill="#8b7c51" d="
  M 239.15 148.33
  Q 238.09 151.78 235.20 153.18
  Q 231.21 155.10 231.86 158.84
  Q 229.96 160.94 229.39 163.81
  Q 229.29 164.31 229.76 164.50
  L 231.04 165.00
  Q 228.62 167.54 228.50 171.21
  Q 227.70 170.61 226.80 170.54
  Q 226.24 170.49 226.01 171.01
  L 221.18 181.90
  Q 218.40 176.40 217.78 170.17
  L 226.63 149.25
  A 1.57 1.57 0.0 0 1 228.09 148.29
  L 239.15 148.33
  Z"
/>
<path fill="#9e8f67" d="
  M 239.15 148.33
  L 258.80 148.18
  Q 264.00 150.67 267.30 153.69
  C 277.80 163.28 278.41 180.33 267.07 189.80
  Q 264.21 192.19 261.50 194.71
  L 230.25 194.71
  L 226.50 188.29
  L 232.88 173.71
  A 0.60 0.60 0.0 0 0 232.57 172.92
  L 228.50 171.21
  Q 228.62 167.54 231.04 165.00
  L 235.33 166.88
  Q 235.86 167.11 236.09 166.58
  L 237.97 162.24
  Q 238.20 161.70 237.67 161.46
  L 231.86 158.84
  Q 231.21 155.10 235.20 153.18
  Q 238.09 151.78 239.15 148.33
  Z
  M 263.30 167.94
  C 260.19 157.64 245.37 156.26 240.68 166.56
  C 238.16 172.12 240.43 179.11 245.78 182.09
  C 255.55 187.55 266.56 178.73 263.30 167.94
  Z"
/>
<path fill="#8b7c51" d="
  M 258.80 148.18
  Q 266.96 148.30 275.25 148.25
  C 276.46 148.25 276.88 149.48 277.31 150.48
  Q 281.73 160.72 286.04 171.00
  C 284.93 175.94 284.51 180.73 282.21 185.55
  C 281.12 187.84 280.65 190.89 278.52 193.30
  Q 278.20 193.65 278.42 194.07
  Q 278.59 194.41 278.50 194.71
  L 261.50 194.71
  Q 264.21 192.19 267.07 189.80
  C 278.41 180.33 277.80 163.28 267.30 153.69
  Q 264.00 150.67 258.80 148.18
  Z"
/>
<path fill="#baab87" d="
  M 240.68 166.56
  C 245.37 156.26 260.19 157.64 263.30 167.94
  C 266.56 178.73 255.55 187.55 245.78 182.09
  C 240.43 179.11 238.16 172.12 240.68 166.56
  Z"
/>
<path fill="#7b6c3e" d="
  M 151.21 189.36
  Q 147.23 188.69 143.29 189.25
  L 143.26 170.60
  Q 143.26 170.08 143.62 169.70
  C 146.34 166.76 151.17 167.73 151.21 172.21
  Q 151.31 180.65 151.21 189.36
  Z"
/>
<path fill="#7b6c3e" d="
  M 217.78 170.17
  Q 218.40 176.40 221.18 181.90
  L 220.17 184.99
  Q 220.00 185.53 220.51 185.75
  L 226.50 188.29
  L 230.25 194.71
  L 207.90 194.73
  A 0.48 0.47 11.7 0 1 207.46 194.07
  L 217.78 170.17
  Z"
/>
<path fill="#7b6c3e" d="
  M 286.04 171.00
  L 295.96 194.13
  A 0.44 0.44 0.0 0 1 295.56 194.74
  L 278.50 194.71
  Q 278.59 194.41 278.42 194.07
  Q 278.20 193.65 278.52 193.30
  C 280.65 190.89 281.12 187.84 282.21 185.55
  C 284.51 180.73 284.93 175.94 286.04 171.00
  Z"
/>
<path fill="#7b6c3e" d="
  M 360.18 204.39
  C 357.11 204.05 355.10 201.24 351.96 203.00
  Q 348.24 202.07 344.67 203.41
  Q 341.76 202.90 339.67 204.88
  Q 339.31 205.22 338.83 205.37
  L 336.79 206.00
  L 336.79 187.49
  Q 336.79 187.00 337.29 187.00
  L 349.75 187.00
  Q 350.26 187.00 350.58 187.39
  C 355.06 192.81 360.96 198.81 360.18 204.39
  Z"
/>
<path fill="#7b6c3e" d="
  M 181.98 208.00
  Q 181.45 207.71 181.36 208.19
  Q 181.28 208.59 180.89 208.45
  Q 177.56 207.27 174.29 208.25
  L 174.29 187.76
  Q 174.29 187.25 174.80 187.25
  L 181.31 187.25
  Q 181.98 187.25 181.98 187.93
  L 181.98 208.00
  Z"
/>
<path fill="#7b6c3e" d="
  M 328.96 210.00
  Q 324.96 209.21 321.49 210.90
  L 321.50 187.80
  Q 321.50 187.25 322.05 187.25
  L 328.30 187.25
  Q 328.98 187.25 328.98 187.93
  L 328.96 210.00
  Z"
/>
<path fill="#9e8f67" d="
  M 151.21 189.36
  L 151.21 201.25
  Q 147.47 199.00 143.22 200.64
  L 143.29 189.25
  Q 147.23 188.69 151.21 189.36
  Z"
/>
<path fill="#8b7c51" d="
  M 164.04 202.50
  L 159.17 202.50
  A 0.42 0.42 0.0 0 1 158.75 202.08
  L 158.76 191.33
  A 0.42 0.42 0.0 0 1 159.56 191.16
  L 164.42 201.91
  A 0.42 0.42 0.0 0 1 164.04 202.50
  Z"
/>
<path fill="#baab87" d="
  M 151.21 201.25
  L 151.21 214.00
  Q 147.41 215.47 143.29 214.75
  L 143.22 200.64
  Q 147.47 199.00 151.21 201.25
  Z"
/>
<path fill="#8b7c51" d="
  M 197.5115 209.6569
  A 0.59 0.59 0.0 0 1 196.9235 210.2489
  L 190.6036 210.2710
  A 0.59 0.59 0.0 0 1 190.0115 209.6831
  L 189.9885 203.1031
  A 0.59 0.59 0.0 0 1 190.5765 202.5111
  L 196.8964 202.4890
  A 0.59 0.59 0.0 0 1 197.4885 203.0769
  L 197.5115 209.6569
  Z
  M 193.49 205.26
  C 191.97 204.77 192.46 207.73 192.80 208.14
  Q 193.13 208.53 193.64 208.43
  L 194.81 208.20
  Q 195.28 208.11 195.27 207.63
  L 195.24 205.71
  Q 195.23 205.17 194.70 205.25
  L 194.18 205.32
  Q 193.83 205.37 193.49 205.26
  Z"
/>
<rect fill="#7b6c3e" x="-3.75" y="-3.88" transform="translate(309.75,206.38) rotate(-0.2)" width="7.50" height="7.76" rx="0.59"/>
<path fill="#8b7c51" d="
  M 360.18 204.39
  L 360.28 210.70
  Q 357.22 206.63 352.01 207.07
  L 351.96 203.00
  C 355.10 201.24 357.11 204.05 360.18 204.39
  Z"
/>
<path fill="#7b6c3e" d="
  M 224.50 202.79
  L 223.40 210.24
  L 205.76 210.22
  Q 205.25 210.22 205.25 209.70
  L 205.25 203.44
  Q 205.25 202.77 205.92 202.77
  L 224.50 202.79
  Z"
/>
<path fill="#9e8f67" d="
  M 224.50 202.79
  L 236.50 202.79
  Q 235.05 205.89 235.92 209.21
  Q 236.06 209.76 235.53 209.98
  L 235.00 210.21
  L 223.40 210.24
  L 224.50 202.79
  Z"
/>
<path fill="#baab87" d="
  M 236.50 202.79
  L 262.68 202.76
  L 262.33 209.49
  Q 262.32 209.75 262.06 209.75
  Q 261.90 209.75 261.74 209.74
  Q 261.00 209.71 261.76 209.99
  Q 261.96 210.07 262.00 210.21
  L 235.00 210.21
  L 235.53 209.98
  Q 236.06 209.76 235.92 209.21
  Q 235.05 205.89 236.50 202.79
  Z"
/>
<path fill="#9e8f67" d="
  M 262.68 202.76
  L 277.75 202.79
  L 277.50 210.21
  L 262.00 210.21
  Q 261.96 210.07 261.76 209.99
  Q 261.00 209.71 261.74 209.74
  Q 261.90 209.75 262.06 209.75
  Q 262.32 209.75 262.33 209.49
  L 262.68 202.76
  Z"
/>
<path fill="#7b6c3e" d="
  M 277.75 202.79
  L 297.71 202.76
  Q 298.25 202.76 298.25 203.30
  L 298.25 209.56
  Q 298.25 210.23 297.57 210.23
  L 277.50 210.21
  L 277.75 202.79
  Z"
/>
<path fill="#9e8f67" d="
  M 344.67 203.41
  L 344.78 209.50
  Q 344.78 210.00 345.28 210.00
  L 351.49 210.00
  Q 351.98 210.00 351.99 209.51
  L 352.01 207.07
  Q 357.22 206.63 360.28 210.70
  L 360.21 237.00
  Q 358.71 238.08 356.99 238.62
  C 353.19 239.83 351.10 240.90 346.73 240.24
  Q 340.73 239.32 336.74 236.82
  L 336.79 206.00
  L 338.83 205.37
  Q 339.31 205.22 339.67 204.88
  Q 341.76 202.90 344.67 203.41
  Z
  M 340.94 218.19
  Q 340.34 218.58 340.23 219.47
  C 339.09 228.67 347.21 232.99 354.66 228.55
  Q 355.06 228.31 355.27 227.89
  Q 359.22 219.98 353.11 215.24
  C 349.02 212.06 343.09 213.53 340.94 218.19
  Z"
/>
<path fill="#baab87" d="
  M 194.18 205.32
  L 194.70 205.25
  Q 195.23 205.17 195.24 205.71
  L 195.27 207.63
  Q 195.28 208.11 194.81 208.20
  L 193.64 208.43
  Q 193.13 208.53 192.80 208.14
  C 192.46 207.73 191.97 204.77 193.49 205.26
  Q 193.83 205.37 194.18 205.32
  Z"
/>
<path fill="#9e8f67" d="
  M 181.98 208.00
  L 181.96 227.50
  L 174.29 226.75
  L 174.29 208.25
  Q 177.56 207.27 180.89 208.45
  Q 181.28 208.59 181.36 208.19
  Q 181.45 207.71 181.98 208.00
  Z"
/>
<path fill="#9e8f67" d="
  M 328.96 210.00
  L 328.96 229.00
  Q 325.30 227.97 321.54 229.00
  L 321.49 210.90
  Q 324.96 209.21 328.96 210.00
  Z"
/>
<path fill="#8b7c51" d="
  M 159.47 219.73
  L 159.15 219.62
  A 0.22 0.22 0.0 0 1 159.00 219.41
  L 159.00 210.47
  A 0.22 0.22 0.0 0 1 159.22 210.25
  L 164.00 210.25
  A 0.22 0.22 0.0 0 1 164.19 210.57
  L 159.74 219.62
  A 0.22 0.22 0.0 0 1 159.47 219.73
  Z"
/>
<path fill="#baab87" d="
  M 340.94 218.19
  C 343.09 213.53 349.02 212.06 353.11 215.24
  Q 359.22 219.98 355.27 227.89
  Q 355.06 228.31 354.66 228.55
  C 347.21 232.99 339.09 228.67 340.23 219.47
  Q 340.34 218.58 340.94 218.19
  Z
  M 351.9891 218.7573
  A 0.52 0.52 0.0 0 0 351.4673 218.2392
  L 345.2473 218.2609
  A 0.52 0.52 0.0 0 0 344.7292 218.7827
  L 344.7509 225.0027
  A 0.52 0.52 0.0 0 0 345.2727 225.5208
  L 351.4927 225.4991
  A 0.52 0.52 0.0 0 0 352.0108 224.9773
  L 351.9891 218.7573
  Z"
/>
<path fill="#9e8f67" d="
  M 151.21 214.00
  L 151.21 223.00
  Q 147.25 224.22 143.29 223.00
  L 143.29 214.75
  Q 147.41 215.47 151.21 214.00
  Z"
/>
<path fill="#7b6c3e" d="
  M 210.04 256.00
  Q 208.65 256.87 209.27 258.52
  Q 211.16 263.59 214.91 272.15
  L 190.65 272.18
  Q 190.00 272.18 190.00 271.53
  L 190.00 218.75
  Q 190.00 218.00 190.75 218.00
  L 197.05 218.00
  Q 197.70 218.00 197.71 218.65
  Q 197.78 224.65 197.94 230.49
  Q 198.37 246.02 210.04 256.00
  Z"
/>
<path fill="#7b6c3e" d="
  M 223.00 218.04
  C 219.37 223.52 218.94 227.54 217.45 233.02
  C 215.68 239.50 219.00 247.57 220.25 253.96
  C 206.24 246.47 203.87 233.59 205.29 218.59
  Q 205.34 218.04 205.90 218.04
  L 223.00 218.04
  Z"
/>
<path fill="#8b7c51" d="
  M 223.00 218.04
  L 237.37 217.85
  Q 227.43 225.26 227.02 236.89
  C 226.78 243.82 230.34 250.75 234.00 256.71
  Q 226.73 257.18 220.25 253.96
  C 219.00 247.57 215.68 239.50 217.45 233.02
  C 218.94 227.54 219.37 223.52 223.00 218.04
  Z"
/>
<path fill="#9e8f67" d="
  M 237.37 217.85
  L 265.83 217.92
  Q 271.92 222.78 273.92 228.81
  Q 278.95 243.97 268.12 256.48
  Q 251.54 257.46 234.00 256.71
  C 230.34 250.75 226.78 243.82 227.02 236.89
  Q 227.43 225.26 237.37 217.85
  Z
  M 255.3385 247.2400
  A 10.18 10.08 69.9 0 0 261.3061 234.2159
  A 10.18 10.08 69.9 0 0 248.3415 228.1200
  A 10.18 10.08 69.9 0 0 242.3739 241.1441
  A 10.18 10.08 69.9 0 0 255.3385 247.2400
  Z"
/>
<path fill="#8b7c51" d="
  M 265.83 217.92
  L 271.45 217.88
  Q 281.64 228.91 279.00 243.26
  Q 278.54 245.77 276.65 249.85
  Q 275.17 253.05 273.96 256.40
  Q 271.91 257.21 268.12 256.48
  Q 278.95 243.97 273.92 228.81
  Q 271.92 222.78 265.83 217.92
  Z"
/>
<path fill="#7b6c3e" d="
  M 271.45 217.88
  L 297.59 218.01
  Q 298.14 218.01 298.16 218.56
  Q 298.47 228.23 298.25 230.74
  C 297.13 243.60 287.79 256.05 273.96 256.40
  Q 275.17 253.05 276.65 249.85
  Q 278.54 245.77 279.00 243.26
  Q 281.64 228.91 271.45 217.88
  Z"
/>
<path fill="#7b6c3e" d="
  M 287.00 272.21
  Q 289.63 266.42 292.50 260.75
  Q 293.23 259.31 293.00 256.46
  C 305.48 245.80 305.94 233.87 305.71 218.55
  Q 305.71 218.00 306.25 218.00
  L 312.75 218.00
  Q 313.50 218.00 313.50 218.75
  L 313.50 271.77
  A 0.47 0.47 0.0 0 1 313.03 272.24
  L 287.00 272.21
  Z"
/>
<path fill="#7b6c3e" d="
  M 143.29 223.00
  Q 147.25 224.22 151.21 223.00
  Q 151.31 231.43 151.22 239.83
  C 151.17 245.05 147.25 247.38 143.58 243.04
  Q 143.26 242.66 143.26 242.17
  L 143.29 223.00
  Z"
/>
<path fill="#baab87" d="
  M 174.29 226.75
  L 181.96 227.50
  L 182.00 246.39
  L 174.29 247.00
  L 174.29 226.75
  Z"
/>
<ellipse fill="#baab87" cx="0.00" cy="0.00" transform="translate(251.84,237.68) rotate(69.9)" rx="10.18" ry="10.08"/>
<path fill="#baab87" d="
  M 328.96 229.00
  L 328.96 250.25
  Q 328.69 250.45 328.68 250.86
  Q 328.68 250.96 328.61 250.89
  Q 328.50 250.77 328.47 250.63
  Q 328.40 250.37 328.14 250.44
  Q 324.73 251.44 321.54 250.00
  L 321.54 229.00
  Q 325.30 227.97 328.96 229.00
  Z"
/>
<path fill="#8b7c51" d="
  M 336.74 236.82
  Q 340.73 239.32 346.73 240.24
  C 351.10 240.90 353.19 239.83 356.99 238.62
  Q 358.71 238.08 360.21 237.00
  L 360.21 243.00
  Q 348.49 247.97 336.75 242.82
  L 336.74 236.82
  Z"
/>
<path fill="#7b6c3e" d="
  M 336.75 242.82
  Q 348.49 247.97 360.21 243.00
  L 360.24 255.79
  A 0.97 0.96 -0.0 0 1 359.27 256.75
  L 337.25 256.75
  A 0.50 0.50 0.0 0 1 336.75 256.25
  L 336.75 242.82
  Z"
/>
<path fill="#9e8f67" d="
  M 182.00 246.39
  L 181.96 258.25
  Q 181.75 258.50 181.73 258.79
  Q 181.70 259.25 181.24 259.23
  L 174.29 259.00
  L 174.29 247.00
  L 182.00 246.39
  Z"
/>
<path fill="#9e8f67" d="
  M 321.54 250.00
  Q 324.73 251.44 328.14 250.44
  Q 328.40 250.37 328.47 250.63
  Q 328.50 250.77 328.61 250.89
  Q 328.68 250.96 328.68 250.86
  Q 328.69 250.45 328.96 250.25
  L 328.96 263.25
  Q 328.84 263.43 328.65 263.55
  Q 328.48 263.66 328.49 263.46
  Q 328.50 263.32 328.50 263.18
  Q 328.51 262.88 328.21 262.92
  Q 324.74 263.39 321.49 262.37
  L 321.54 250.00
  Z"
/>
<path fill="#8b7c51" d="
  M 210.04 256.00
  Q 218.37 263.02 229.25 264.29
  Q 228.88 266.57 230.44 267.56
  Q 233.55 269.55 234.00 272.21
  L 214.91 272.15
  Q 211.16 263.59 209.27 258.52
  Q 208.65 256.87 210.04 256.00
  Z"
/>
<path fill="#8b7c51" d="
  M 293.00 256.46
  Q 293.23 259.31 292.50 260.75
  Q 289.63 266.42 287.00 272.21
  L 278.43 272.18
  L 283.86 264.08
  Q 284.18 263.59 283.94 263.07
  Q 283.47 262.10 282.25 262.46
  Q 288.12 260.35 293.00 256.46
  Z"
/>
<path fill="#7b6c3e" d="
  M 181.96 258.25
  L 181.97 287.48
  Q 181.97 288.00 181.45 288.00
  L 174.95 288.00
  Q 174.27 288.00 174.27 287.32
  L 174.29 259.00
  L 181.24 259.23
  Q 181.70 259.25 181.73 258.79
  Q 181.75 258.50 181.96 258.25
  Z"
/>
<path fill="#7b6c3e" d="
  M 321.49 262.37
  Q 324.74 263.39 328.21 262.92
  Q 328.51 262.88 328.50 263.18
  Q 328.50 263.32 328.49 263.46
  Q 328.48 263.66 328.65 263.55
  Q 328.84 263.43 328.96 263.25
  L 328.97 287.48
  Q 328.97 288.00 328.45 288.00
  L 322.20 288.00
  Q 321.51 288.00 321.51 287.32
  L 321.49 262.37
  Z"
/>
<path fill="#9e8f67" d="
  M 282.25 262.46
  Q 283.47 262.10 283.94 263.07
  Q 284.18 263.59 283.86 264.08
  L 278.43 272.18
  L 234.00 272.21
  Q 233.55 269.55 230.44 267.56
  Q 228.88 266.57 229.25 264.29
  Q 243.24 264.53 267.00 264.50
  Q 275.09 264.49 282.25 262.46
  Z"
/>
<path fill="#8b7c51" d="
  M 344.5214 271.6464
  A 0.60 0.60 0.0 0 1 343.9235 272.2485
  L 337.3636 272.2714
  A 0.60 0.60 0.0 0 1 336.7615 271.6735
  L 336.7386 265.1136
  A 0.60 0.60 0.0 0 1 337.3365 264.5115
  L 343.8964 264.4886
  A 0.60 0.60 0.0 0 1 344.4985 265.0865
  L 344.5214 271.6464
  Z
  M 342.35 268.13
  L 341.22 266.97
  Q 340.79 266.53 340.24 266.80
  Q 338.85 267.50 339.31 268.88
  Q 339.47 269.34 339.96 269.38
  L 341.69 269.53
  A 0.83 0.83 0.0 0 0 342.35 268.13
  Z"
/>
<path fill="#baab87" d="
  M 342.35 268.13
  A 0.83 0.83 0.0 0 1 341.69 269.53
  L 339.96 269.38
  Q 339.47 269.34 339.31 268.88
  Q 338.85 267.50 340.24 266.80
  Q 340.79 266.53 341.22 266.97
  L 342.35 268.13
  Z"
/>
<path fill="#7b6c3e" d="
  M 211.16 280.00
  Q 210.19 283.79 210.25 287.71
  L 190.43 287.73
  Q 189.75 287.73 189.75 287.06
  L 189.75 280.55
  Q 189.75 280.00 190.30 280.00
  L 211.16 280.00
  Z"
/>
<path fill="#9e8f67" d="
  M 211.16 280.00
  L 235.50 280.04
  Q 233.98 283.82 235.19 287.74
  L 210.25 287.71
  Q 210.19 283.79 211.16 280.00
  Z"
/>
<path fill="#baab87" d="
  M 235.50 280.04
  L 274.75 280.04
  Q 273.81 283.84 274.50 287.71
  L 235.19 287.74
  Q 233.98 283.82 235.50 280.04
  Z"
/>
<path fill="#9e8f67" d="
  M 274.75 280.04
  L 283.92 280.00
  L 284.69 287.75
  L 274.50 287.71
  Q 273.81 283.84 274.75 280.04
  Z"
/>
<path fill="#7b6c3e" d="
  M 283.92 280.00
  L 312.81 280.01
  Q 313.50 280.01 313.50 280.69
  L 313.50 287.20
  Q 313.50 287.75 312.95 287.75
  L 284.69 287.75
  L 283.92 280.00
  Z"
/>
<path fill="#8b7c51" d="
  M 201.51 318.64
  A 23.30 23.30 0.0 0 1 178.21 341.94
  A 23.30 23.30 0.0 0 1 154.91 318.64
  A 23.30 23.30 0.0 0 1 178.21 295.34
  A 23.30 23.30 0.0 0 1 201.51 318.64
  Z
  M 194.50 310.99
  C 188.70 298.49 169.87 298.01 163.49 309.70
  Q 160.90 314.44 160.71 319.79
  C 160.62 322.42 163.03 328.34 164.92 330.10
  C 173.58 338.18 185.19 339.45 192.82 329.12
  Q 199.03 320.74 194.50 310.99
  Z"
/>
<path fill="#8b7c51" d="
  M 348.51 318.64
  A 23.29 23.29 0.0 0 1 325.22 341.93
  A 23.29 23.29 0.0 0 1 301.93 318.64
  A 23.29 23.29 0.0 0 1 325.22 295.35
  A 23.29 23.29 0.0 0 1 348.51 318.64
  Z
  M 308.76 326.59
  C 316.12 340.88 334.55 341.28 341.91 326.74
  C 344.20 322.21 344.58 317.64 342.70 312.76
  C 340.80 307.83 338.36 304.42 333.66 302.20
  C 327.42 299.25 320.18 300.02 314.73 304.09
  C 308.27 308.92 305.77 316.81 307.51 324.71
  Q 307.66 325.41 308.16 325.84
  Q 308.53 326.15 308.76 326.59
  Z"
/>
<path fill="#7b6c3e" d="
  M 222.00 295.54
  Q 218.80 305.34 221.16 315.47
  L 209.60 317.78
  A 0.48 0.48 0.0 0 1 209.02 317.34
  C 208.39 307.97 204.73 303.05 199.28 295.99
  Q 198.92 295.53 199.51 295.53
  L 222.00 295.54
  Z"
/>
<path fill="#8b7c51" d="
  M 222.00 295.54
  L 228.41 295.57
  C 226.96 300.81 225.27 309.03 228.25 313.96
  L 221.16 315.47
  Q 218.80 305.34 222.00 295.54
  Z"
/>
<path fill="#9e8f67" d="
  M 228.41 295.57
  L 240.76 295.63
  Q 236.00 303.31 238.04 312.00
  L 228.25 313.96
  C 225.27 309.03 226.96 300.81 228.41 295.57
  Z"
/>
<path fill="#baab87" d="
  M 240.76 295.63
  L 265.25 295.54
  L 269.19 305.95
  L 238.04 312.00
  Q 236.00 303.31 240.76 295.63
  Z"
/>
<path fill="#9e8f67" d="
  M 265.25 295.54
  L 285.25 295.54
  Q 286.57 296.00 286.05 297.25
  Q 285.85 297.74 285.93 298.27
  L 286.50 302.46
  L 269.19 305.95
  L 265.25 295.54
  Z"
/>
<path fill="#7b6c3e" d="
  M 285.25 295.54
  L 303.80 295.54
  Q 304.44 295.53 304.11 296.09
  C 301.39 300.67 291.77 301.62 286.50 302.46
  L 285.93 298.27
  Q 285.85 297.74 286.05 297.25
  Q 286.57 296.00 285.25 295.54
  Z"
/>
<path fill="#9e8f67" d="
  M 308.16 325.84
  Q 307.66 325.41 307.51 324.71
  C 305.77 316.81 308.27 308.92 314.73 304.09
  C 320.18 300.02 327.42 299.25 333.66 302.20
  C 338.36 304.42 340.80 307.83 342.70 312.76
  C 344.58 317.64 344.20 322.21 341.91 326.74
  C 334.55 341.28 316.12 340.88 308.76 326.59
  Q 308.53 326.15 308.16 325.84
  Z
  M 336.60 318.62
  A 11.40 11.40 0.0 0 0 325.20 307.22
  A 11.40 11.40 0.0 0 0 313.80 318.62
  A 11.40 11.40 0.0 0 0 325.20 330.02
  A 11.40 11.40 0.0 0 0 336.60 318.62
  Z"
/>
<path fill="#9e8f67" d="
  M 163.49 309.70
  C 169.87 298.01 188.70 298.49 194.50 310.99
  Q 199.03 320.74 192.82 329.12
  C 185.19 339.45 173.58 338.18 164.92 330.10
  C 163.03 328.34 160.62 322.42 160.71 319.79
  Q 160.90 314.44 163.49 309.70
  Z
  M 189.61 318.63
  A 11.40 11.40 0.0 0 0 178.21 307.23
  A 11.40 11.40 0.0 0 0 166.81 318.63
  A 11.40 11.40 0.0 0 0 178.21 330.03
  A 11.40 11.40 0.0 0 0 189.61 318.63
  Z"
/>
<path fill="#8b7c51" d="
  M 182.13 318.65
  A 3.93 3.93 0.0 0 1 178.20 322.58
  A 3.93 3.93 0.0 0 1 174.27 318.65
  A 3.93 3.93 0.0 0 1 178.20 314.72
  A 3.93 3.93 0.0 0 1 182.13 318.65
  Z
  M 179.70 319.85
  L 179.77 317.99
  A 0.69 0.69 0.0 0 0 179.11 317.28
  L 179.01 317.27
  A 2.45 1.37 2.2 0 0 176.51 318.55
  L 176.49 319.05
  A 2.45 1.37 2.2 0 0 178.89 320.51
  L 178.99 320.51
  A 0.69 0.69 0.0 0 0 179.70 319.85
  Z"
/>
<circle fill="#7b6c3e" cx="325.21" cy="318.65" r="3.95"/>
<path fill="#baab87" d="
  M 179.70 319.85
  A 0.69 0.69 0.0 0 1 178.99 320.51
  L 178.89 320.51
  A 2.45 1.37 2.2 0 1 176.49 319.05
  L 176.51 318.55
  A 2.45 1.37 2.2 0 1 179.01 317.27
  L 179.11 317.28
  A 0.69 0.69 0.0 0 1 179.77 317.99
  L 179.70 319.85
  Z"
/>
<path fill="#7b6c3e" d="
  M 349.67 414.86
  A 0.18 0.18 0.0 0 0 349.35 414.89
  C 341.80 435.73 318.30 420.26 321.54 404.61
  C 322.90 398.00 328.35 394.09 335.09 394.18
  Q 335.84 394.19 335.44 393.56
  L 327.99 381.42
  A 0.75 0.75 0.0 0 1 328.23 380.39
  L 332.65 377.61
  A 0.43 0.43 0.0 0 1 333.25 377.75
  L 355.85 414.08
  Q 356.14 414.55 355.66 414.83
  L 351.70 417.16
  Q 351.17 417.47 350.86 416.94
  L 349.67 414.86
  Z
  M 337.51 396.19
  Q 329.02 393.55 324.19 401.20
  C 319.73 408.25 324.16 417.13 330.18 421.49
  C 337.85 427.03 348.19 422.11 348.01 412.76
  A 0.63 0.63 0.0 0 1 349.16 412.40
  L 351.28 415.60
  Q 351.63 416.13 352.15 415.78
  L 354.12 414.48
  Q 354.54 414.21 354.27 413.78
  L 332.84 379.35
  A 0.46 0.46 0.0 0 0 332.19 379.21
  L 329.68 380.88
  Q 329.19 381.21 329.50 381.72
  L 338.03 395.52
  A 0.45 0.45 0.0 0 1 337.51 396.19
  Z"
/>
<path fill="#d4c5a5" d="
  M 337.51 396.19
  A 0.45 0.45 0.0 0 0 338.03 395.52
  L 329.50 381.72
  Q 329.19 381.21 329.68 380.88
  L 332.19 379.21
  A 0.46 0.46 0.0 0 1 332.84 379.35
  L 354.27 413.78
  Q 354.54 414.21 354.12 414.48
  L 352.15 415.78
  Q 351.63 416.13 351.28 415.60
  L 349.16 412.40
  A 0.63 0.63 0.0 0 0 348.01 412.76
  C 348.19 422.11 337.85 427.03 330.18 421.49
  C 324.16 417.13 319.73 408.25 324.19 401.20
  Q 329.02 393.55 337.51 396.19
  Z
  M 333.61 398.02
  C 319.69 399.69 328.61 422.30 339.19 419.93
  C 353.26 416.77 343.24 396.86 333.61 398.02
  Z"
/>
<path fill="#7b6c3e" d="
  M 146.63 417.53
  A 0.72 0.72 0.0 0 1 146.41 416.54
  L 167.46 382.73
  Q 167.75 382.27 168.24 382.50
  C 174.76 385.43 188.44 392.08 185.28 402.26
  C 181.53 414.34 169.21 414.21 160.72 407.45
  A 0.84 0.83 34.8 0 0 159.48 407.67
  L 151.84 420.10
  Q 151.49 420.67 150.94 420.31
  L 146.63 417.53
  Z
  M 160.18 405.62
  C 164.35 409.16 170.92 412.43 176.29 410.65
  C 181.20 409.03 184.77 403.84 184.47 398.61
  C 184.07 391.73 174.36 386.10 168.61 384.21
  Q 168.07 384.03 167.77 384.51
  L 148.02 416.17
  Q 147.64 416.79 148.25 417.17
  L 150.55 418.63
  Q 151.05 418.95 151.37 418.44
  L 159.31 405.76
  Q 159.66 405.19 160.18 405.62
  Z"
/>
<path fill="#d4c5a5" d="
  M 159.31 405.76
  L 151.37 418.44
  Q 151.05 418.95 150.55 418.63
  L 148.25 417.17
  Q 147.64 416.79 148.02 416.17
  L 167.77 384.51
  Q 168.07 384.03 168.61 384.21
  C 174.36 386.10 184.07 391.73 184.47 398.61
  C 184.77 403.84 181.20 409.03 176.29 410.65
  C 170.92 412.43 164.35 409.16 160.18 405.62
  Q 159.66 405.19 159.31 405.76
  Z
  M 169.31 389.45
  L 162.01 401.21
  A 1.89 1.89 0.0 0 0 162.62 403.81
  L 166.35 406.12
  A 9.44 8.61 31.8 0 0 178.91 403.78
  L 179.13 403.44
  A 9.44 8.61 31.8 0 0 175.64 391.15
  L 171.91 388.84
  A 1.89 1.89 0.0 0 0 169.31 389.45
  Z"
/>
<path fill="#7b6c3e" d="
  M 169.31 389.45
  A 1.89 1.89 0.0 0 1 171.91 388.84
  L 175.64 391.15
  A 9.44 8.61 31.8 0 1 179.13 403.44
  L 178.91 403.78
  A 9.44 8.61 31.8 0 1 166.35 406.12
  L 162.62 403.81
  A 1.89 1.89 0.0 0 1 162.01 401.21
  L 169.31 389.45
  Z
  M 169.99 390.73
  L 163.41 401.21
  A 1.51 1.51 0.0 0 0 163.89 403.30
  L 166.79 405.11
  A 8.43 7.23 32.1 0 0 177.77 403.47
  L 178.27 402.67
  A 8.43 7.23 32.1 0 0 174.97 392.07
  L 172.07 390.25
  A 1.51 1.51 0.0 0 0 169.99 390.73
  Z"
/>
<path fill="#97958f" d="
  M 169.99 390.73
  A 1.51 1.51 0.0 0 1 172.07 390.25
  L 174.97 392.07
  A 8.43 7.23 32.1 0 1 178.27 402.67
  L 177.77 403.47
  A 8.43 7.23 32.1 0 1 166.79 405.11
  L 163.89 403.30
  A 1.51 1.51 0.0 0 1 163.41 401.21
  L 169.99 390.73
  Z"
/>
<path fill="#7b6c3e" d="
  M 324.5974 432.2382
  A 0.59 0.59 0.0 0 1 324.3216 433.0257
  L 319.6180 435.2894
  A 0.59 0.59 0.0 0 1 318.8305 435.0136
  L 300.3826 396.6818
  A 0.59 0.59 0.0 0 1 300.6584 395.8943
  L 305.3620 393.6306
  A 0.59 0.59 0.0 0 1 306.1495 393.9064
  L 324.5974 432.2382
  Z
  M 305.7204 395.5752
  A 0.80 0.80 0.0 0 0 304.6526 395.2013
  L 302.3279 396.3201
  A 0.80 0.80 0.0 0 0 301.9539 397.3879
  L 319.2396 433.3048
  A 0.80 0.80 0.0 0 0 320.3074 433.6787
  L 322.6321 432.5599
  A 0.80 0.80 0.0 0 0 323.0061 431.4921
  L 305.7204 395.5752
  Z"
/>
<rect fill="#d4c5a5" x="-2.09" y="-20.73" transform="translate(312.48,414.44) rotate(-25.7)" width="4.18" height="41.46" rx="0.80"/>
<path fill="#7b6c3e" d="
  M 339.19 419.93
  C 328.61 422.30 319.69 399.69 333.61 398.02
  C 343.24 396.86 353.26 416.77 339.19 419.93
  Z
  M 332.89 417.12
  C 337.72 421.18 344.79 418.24 345.28 412.09
  C 345.75 406.03 336.67 394.21 329.73 401.30
  C 325.24 405.90 328.75 413.63 332.89 417.12
  Z"
/>
<path fill="#97958f" d="
  M 332.89 417.12
  C 328.75 413.63 325.24 405.90 329.73 401.30
  C 336.67 394.21 345.75 406.03 345.28 412.09
  C 344.79 418.24 337.72 421.18 332.89 417.12
  Z"
/>
<path fill="#7b6c3e" d="
  M 297.58 405.25
  A 3.79 3.79 0.0 0 1 293.79 409.04
  A 3.79 3.79 0.0 0 1 290.00 405.25
  A 3.79 3.79 0.0 0 1 293.79 401.46
  A 3.79 3.79 0.0 0 1 297.58 405.25
  Z
  M 296.50 405.28
  A 2.72 2.72 0.0 0 0 293.78 402.56
  A 2.72 2.72 0.0 0 0 291.06 405.28
  A 2.72 2.72 0.0 0 0 293.78 408.00
  A 2.72 2.72 0.0 0 0 296.50 405.28
  Z"
/>
<circle fill="#d4c5a5" cx="293.78" cy="405.28" r="2.72"/>
<path fill="#7b6c3e" d="
  M 191.69 412.35
  Q 196.06 409.85 200.64 412.02
  A 1.28 1.27 24.9 0 1 201.26 413.70
  L 199.45 417.68
  Q 199.20 418.23 198.67 417.93
  C 192.23 414.20 189.26 418.41 186.61 423.92
  Q 183.68 430.03 180.79 436.19
  Q 180.53 436.74 179.99 436.48
  L 175.30 434.20
  Q 174.85 433.98 175.06 433.52
  L 187.16 407.21
  Q 187.41 406.68 187.94 406.92
  L 191.84 408.68
  Q 192.36 408.91 192.16 409.45
  L 191.23 411.96
  Q 190.93 412.79 191.69 412.35
  Z
  M 189.74 415.13
  A 0.52 0.51 84.8 0 1 188.99 414.50
  L 190.88 409.88
  Q 191.10 409.34 190.55 409.15
  L 188.55 408.45
  Q 187.93 408.24 187.66 408.83
  L 176.55 432.95
  Q 176.33 433.41 176.79 433.64
  L 179.49 435.00
  Q 180.07 435.29 180.33 434.69
  C 184.11 426.07 187.66 412.44 198.22 416.33
  Q 198.80 416.55 199.04 415.98
  L 200.02 413.61
  Q 200.24 413.06 199.71 412.82
  C 195.27 410.76 193.19 412.88 189.74 415.13
  Z"
/>
<path fill="#d4c5a5" d="
  M 189.74 415.13
  C 193.19 412.88 195.27 410.76 199.71 412.82
  Q 200.24 413.06 200.02 413.61
  L 199.04 415.98
  Q 198.80 416.55 198.22 416.33
  C 187.66 412.44 184.11 426.07 180.33 434.69
  Q 180.07 435.29 179.49 435.00
  L 176.79 433.64
  Q 176.33 433.41 176.55 432.95
  L 187.66 408.83
  Q 187.93 408.24 188.55 408.45
  L 190.55 409.15
  Q 191.10 409.34 190.88 409.88
  L 188.99 414.50
  A 0.52 0.51 84.8 0 0 189.74 415.13
  Z"
/>
<path fill="#7b6c3e" d="
  M 252.93 430.85
  C 257.38 433.30 259.93 437.26 259.11 442.48
  C 257.23 454.46 242.10 453.71 233.10 452.31
  A 0.79 0.78 4.9 0 1 232.42 451.51
  L 233.54 412.06
  Q 233.56 411.47 234.14 411.40
  C 240.47 410.66 252.39 409.84 256.73 416.52
  C 259.93 421.44 257.95 427.37 252.93 430.16
  Q 252.30 430.51 252.93 430.85
  Z
  M 250.35 430.24
  C 254.57 428.09 258.19 424.90 257.08 419.81
  C 255.04 410.48 241.66 411.69 235.15 412.24
  Q 234.51 412.29 234.49 412.94
  L 233.50 450.51
  A 0.78 0.78 0.0 0 0 234.13 451.30
  C 239.96 452.40 249.46 452.70 254.30 448.84
  C 261.21 443.32 258.55 433.72 250.42 431.15
  A 0.49 0.49 0.0 0 1 250.35 430.24
  Z"
/>
<path fill="#7b6c3e" d="
  M 310.5618 438.7845
  A 0.50 0.50 0.0 0 1 310.2810 439.4334
  L 305.2416 441.4286
  A 0.50 0.50 0.0 0 1 304.5927 441.1478
  L 293.8582 414.0355
  A 0.50 0.50 0.0 0 1 294.1390 413.3866
  L 299.1784 411.3914
  A 0.50 0.50 0.0 0 1 299.8273 411.6722
  L 310.5618 438.7845
  Z
  M 299.1455 412.9968
  A 0.40 0.40 0.0 0 0 298.6260 412.7730
  L 295.4855 414.0228
  A 0.40 0.40 0.0 0 0 295.2617 414.5423
  L 305.2745 439.7032
  A 0.40 0.40 0.0 0 0 305.7940 439.9270
  L 308.9345 438.6772
  A 0.40 0.40 0.0 0 0 309.1583 438.1577
  L 299.1455 412.9968
  Z"
/>
<path fill="#d4c5a5" d="
  M 250.35 430.24
  A 0.49 0.49 0.0 0 0 250.42 431.15
  C 258.55 433.72 261.21 443.32 254.30 448.84
  C 249.46 452.70 239.96 452.40 234.13 451.30
  A 0.78 0.78 0.0 0 1 233.50 450.51
  L 234.49 412.94
  Q 234.51 412.29 235.15 412.24
  C 241.66 411.69 255.04 410.48 257.08 419.81
  C 258.19 424.90 254.57 428.09 250.35 430.24
  Z
  M 238.27 416.12
  L 238.31 428.20
  A 1.07 1.07 0.0 0 0 239.38 429.26
  L 244.76 429.24
  A 8.25 6.81 -0.2 0 0 252.99 422.40
  L 252.99 421.80
  A 8.25 6.81 -0.2 0 0 244.72 415.02
  L 239.34 415.04
  A 1.07 1.07 0.0 0 0 238.27 416.12
  Z
  M 238.08 433.42
  L 237.64 447.48
  A 1.37 1.37 0.0 0 0 238.97 448.89
  L 243.54 449.03
  A 9.98 7.93 1.8 0 0 253.76 441.42
  L 253.79 440.48
  A 9.98 7.93 1.8 0 0 244.06 432.24
  L 239.50 432.10
  A 1.37 1.37 0.0 0 0 238.08 433.42
  Z"
/>
<rect fill="#d4c5a5" x="-2.09" y="-13.94" transform="translate(302.21,426.35) rotate(-21.7)" width="4.18" height="27.88" rx="0.40"/>
<path fill="#7b6c3e" d="
  M 238.27 416.12
  A 1.07 1.07 0.0 0 1 239.34 415.04
  L 244.72 415.02
  A 8.25 6.81 -0.2 0 1 252.99 421.80
  L 252.99 422.40
  A 8.25 6.81 -0.2 0 1 244.76 429.24
  L 239.38 429.26
  A 1.07 1.07 0.0 0 1 238.31 428.20
  L 238.27 416.12
  Z
  M 239.33 416.94
  L 239.27 427.28
  A 0.97 0.97 0.0 0 0 240.24 428.25
  L 244.47 428.27
  A 7.50 5.91 0.3 0 0 252.00 422.40
  L 252.00 421.94
  A 7.50 5.91 0.3 0 0 244.53 415.99
  L 240.30 415.97
  A 0.97 0.97 0.0 0 0 239.33 416.94
  Z"
/>
<path fill="#97958f" d="
  M 239.33 416.94
  A 0.97 0.97 0.0 0 1 240.30 415.97
  L 244.53 415.99
  A 7.50 5.91 0.3 0 1 252.00 421.94
  L 252.00 422.40
  A 7.50 5.91 0.3 0 1 244.47 428.27
  L 240.24 428.25
  A 0.97 0.97 0.0 0 1 239.27 427.28
  L 239.33 416.94
  Z"
/>
<path fill="#7b6c3e" d="
  M 288.68 443.80
  A 0.22 0.22 0.0 0 0 288.28 443.74
  C 282.93 452.17 270.76 452.27 267.82 441.66
  Q 266.05 435.31 263.11 422.77
  Q 262.96 422.12 263.61 421.98
  L 268.63 420.90
  Q 269.12 420.80 269.25 421.29
  C 270.75 427.21 272.07 436.94 275.37 441.89
  C 278.22 446.18 283.95 443.53 285.56 439.86
  C 287.24 436.02 282.87 422.85 281.78 418.41
  A 0.83 0.83 0.0 0 1 282.38 417.41
  L 286.75 416.35
  Q 287.81 416.09 288.07 417.16
  L 294.85 444.87
  Q 295.01 445.53 294.35 445.68
  L 290.12 446.63
  Q 289.47 446.77 289.30 446.13
  L 288.68 443.80
  Z
  M 288.99 441.33
  L 290.15 444.93
  Q 290.30 445.41 290.78 445.29
  L 293.13 444.73
  Q 293.63 444.61 293.51 444.11
  L 287.19 418.20
  A 0.72 0.71 -13.0 0 0 286.33 417.67
  L 283.51 418.34
  Q 283.06 418.44 283.16 418.89
  C 284.20 423.67 288.22 435.42 286.75 439.70
  C 285.33 443.82 279.41 447.21 275.53 443.97
  C 271.55 440.64 269.75 427.70 268.54 422.49
  Q 268.40 421.90 267.82 422.06
  L 264.85 422.86
  Q 264.29 423.01 264.42 423.56
  Q 266.47 432.43 268.88 441.15
  C 270.99 448.77 279.05 451.36 284.88 446.22
  C 286.38 444.90 287.16 443.10 288.07 441.26
  Q 288.62 440.17 288.99 441.33
  Z"
/>
<path fill="#7b6c3e" d="
  M 205.6525 446.9773
  A 15.85 14.86 111.3 0 1 197.5651 426.8121
  A 15.85 14.86 111.3 0 1 217.1675 417.4427
  A 15.85 14.86 111.3 0 1 225.2549 437.6079
  A 15.85 14.86 111.3 0 1 205.6525 446.9773
  Z
  M 206.1033 446.0183
  A 14.78 13.74 111.0 0 0 224.2274 437.1440
  A 14.78 13.74 111.0 0 0 216.6967 418.4217
  A 14.78 13.74 111.0 0 0 198.5726 427.2960
  A 14.78 13.74 111.0 0 0 206.1033 446.0183
  Z"
/>
<path fill="#d4c5a5" d="
  M 206.1033 446.0183
  A 14.78 13.74 111.0 0 1 198.5726 427.2960
  A 14.78 13.74 111.0 0 1 216.6967 418.4217
  A 14.78 13.74 111.0 0 1 224.2274 437.1440
  A 14.78 13.74 111.0 0 1 206.1033 446.0183
  Z
  M 207.9608 443.5151
  A 11.83 9.39 106.8 0 0 220.3692 434.9040
  A 11.83 9.39 106.8 0 0 214.7992 420.8649
  A 11.83 9.39 106.8 0 0 202.3908 429.4760
  A 11.83 9.39 106.8 0 0 207.9608 443.5151
  Z"
/>
<path fill="#d4c5a5" d="
  M 288.07 441.26
  C 287.16 443.10 286.38 444.90 284.88 446.22
  C 279.05 451.36 270.99 448.77 268.88 441.15
  Q 266.47 432.43 264.42 423.56
  Q 264.29 423.01 264.85 422.86
  L 267.82 422.06
  Q 268.40 421.90 268.54 422.49
  C 269.75 427.70 271.55 440.64 275.53 443.97
  C 279.41 447.21 285.33 443.82 286.75 439.70
  C 288.22 435.42 284.20 423.67 283.16 418.89
  Q 283.06 418.44 283.51 418.34
  L 286.33 417.67
  A 0.72 0.71 -13.0 0 1 287.19 418.20
  L 293.51 444.11
  Q 293.63 444.61 293.13 444.73
  L 290.78 445.29
  Q 290.30 445.41 290.15 444.93
  L 288.99 441.33
  Q 288.62 440.17 288.07 441.26
  Z"
/>
<path fill="#7b6c3e" d="
  M 207.9608 443.5151
  A 11.83 9.39 106.8 0 1 202.3908 429.4760
  A 11.83 9.39 106.8 0 1 214.7992 420.8649
  A 11.83 9.39 106.8 0 1 220.3692 434.9040
  A 11.83 9.39 106.8 0 1 207.9608 443.5151
  Z
  M 208.4904 442.4995
  A 10.73 8.26 105.9 0 0 219.3740 434.4429
  A 10.73 8.26 105.9 0 0 214.3696 421.8605
  A 10.73 8.26 105.9 0 0 203.4860 429.9171
  A 10.73 8.26 105.9 0 0 208.4904 442.4995
  Z"
/>
<ellipse fill="#97958f" cx="0.00" cy="0.00" transform="translate(211.43,432.18) rotate(105.9)" rx="10.73" ry="8.26"/>
<path fill="#7b6c3e" d="
  M 238.08 433.42
  A 1.37 1.37 0.0 0 1 239.50 432.10
  L 244.06 432.24
  A 9.98 7.93 1.8 0 1 253.79 440.48
  L 253.76 441.42
  A 9.98 7.93 1.8 0 1 243.54 449.03
  L 238.97 448.89
  A 1.37 1.37 0.0 0 1 237.64 447.48
  L 238.08 433.42
  Z
  M 239.06 434.22
  L 238.67 446.68
  A 1.05 1.05 0.0 0 0 239.68 447.76
  L 243.19 447.87
  A 9.34 7.05 1.8 0 0 252.75 441.12
  L 252.76 440.66
  A 9.34 7.05 1.8 0 0 243.65 433.32
  L 240.14 433.21
  A 1.05 1.05 0.0 0 0 239.06 434.22
  Z"
/>
<path fill="#97958f" d="
  M 239.06 434.22
  A 1.05 1.05 0.0 0 1 240.14 433.21
  L 243.65 433.32
  A 9.34 7.05 1.8 0 1 252.76 440.66
  L 252.75 441.12
  A 9.34 7.05 1.8 0 1 243.19 447.87
  L 239.68 447.76
  A 1.05 1.05 0.0 0 1 238.67 446.68
  L 239.06 434.22
  Z"
/>
</svg>
